G75*
G70*
%OFA0B0*%
%FSLAX24Y24*%
%IPPOS*%
%LPD*%
%AMOC8*
5,1,8,0,0,1.08239X$1,22.5*
%
%ADD10C,0.0000*%
%ADD11C,0.0030*%
%ADD12C,0.0060*%
%ADD13C,0.0050*%
%ADD14C,0.0080*%
%ADD15C,0.0040*%
%ADD16C,0.0100*%
%ADD17R,0.0167X0.0128*%
%ADD18R,0.0138X0.0138*%
%ADD19C,0.0197*%
%ADD20C,0.0020*%
D10*
X001058Y000786D02*
X001058Y014566D01*
X018775Y014566D01*
X018775Y000786D01*
X001058Y000786D01*
X002397Y005117D02*
X002399Y005167D01*
X002405Y005217D01*
X002415Y005266D01*
X002429Y005314D01*
X002446Y005361D01*
X002467Y005406D01*
X002492Y005450D01*
X002520Y005491D01*
X002552Y005530D01*
X002586Y005567D01*
X002623Y005601D01*
X002663Y005631D01*
X002705Y005658D01*
X002749Y005682D01*
X002795Y005703D01*
X002842Y005719D01*
X002890Y005732D01*
X002940Y005741D01*
X002989Y005746D01*
X003040Y005747D01*
X003090Y005744D01*
X003139Y005737D01*
X003188Y005726D01*
X003236Y005711D01*
X003282Y005693D01*
X003327Y005671D01*
X003370Y005645D01*
X003411Y005616D01*
X003450Y005584D01*
X003486Y005549D01*
X003518Y005511D01*
X003548Y005471D01*
X003575Y005428D01*
X003598Y005384D01*
X003617Y005338D01*
X003633Y005290D01*
X003645Y005241D01*
X003653Y005192D01*
X003657Y005142D01*
X003657Y005092D01*
X003653Y005042D01*
X003645Y004993D01*
X003633Y004944D01*
X003617Y004896D01*
X003598Y004850D01*
X003575Y004806D01*
X003548Y004763D01*
X003518Y004723D01*
X003486Y004685D01*
X003450Y004650D01*
X003411Y004618D01*
X003370Y004589D01*
X003327Y004563D01*
X003282Y004541D01*
X003236Y004523D01*
X003188Y004508D01*
X003139Y004497D01*
X003090Y004490D01*
X003040Y004487D01*
X002989Y004488D01*
X002940Y004493D01*
X002890Y004502D01*
X002842Y004515D01*
X002795Y004531D01*
X002749Y004552D01*
X002705Y004576D01*
X002663Y004603D01*
X002623Y004633D01*
X002586Y004667D01*
X002552Y004704D01*
X002520Y004743D01*
X002492Y004784D01*
X002467Y004828D01*
X002446Y004873D01*
X002429Y004920D01*
X002415Y004968D01*
X002405Y005017D01*
X002399Y005067D01*
X002397Y005117D01*
X010179Y010036D02*
X010181Y010071D01*
X010187Y010106D01*
X010197Y010140D01*
X010210Y010173D01*
X010227Y010204D01*
X010248Y010232D01*
X010271Y010259D01*
X010298Y010282D01*
X010326Y010303D01*
X010357Y010320D01*
X010390Y010333D01*
X010424Y010343D01*
X010459Y010349D01*
X010494Y010351D01*
X010529Y010349D01*
X010564Y010343D01*
X010598Y010333D01*
X010631Y010320D01*
X010662Y010303D01*
X010690Y010282D01*
X010717Y010259D01*
X010740Y010232D01*
X010761Y010204D01*
X010778Y010173D01*
X010791Y010140D01*
X010801Y010106D01*
X010807Y010071D01*
X010809Y010036D01*
X010807Y010001D01*
X010801Y009966D01*
X010791Y009932D01*
X010778Y009899D01*
X010761Y009868D01*
X010740Y009840D01*
X010717Y009813D01*
X010690Y009790D01*
X010662Y009769D01*
X010631Y009752D01*
X010598Y009739D01*
X010564Y009729D01*
X010529Y009723D01*
X010494Y009721D01*
X010459Y009723D01*
X010424Y009729D01*
X010390Y009739D01*
X010357Y009752D01*
X010326Y009769D01*
X010298Y009790D01*
X010271Y009813D01*
X010248Y009840D01*
X010227Y009868D01*
X010210Y009899D01*
X010197Y009932D01*
X010187Y009966D01*
X010181Y010001D01*
X010179Y010036D01*
X016176Y005117D02*
X016178Y005167D01*
X016184Y005217D01*
X016194Y005266D01*
X016208Y005314D01*
X016225Y005361D01*
X016246Y005406D01*
X016271Y005450D01*
X016299Y005491D01*
X016331Y005530D01*
X016365Y005567D01*
X016402Y005601D01*
X016442Y005631D01*
X016484Y005658D01*
X016528Y005682D01*
X016574Y005703D01*
X016621Y005719D01*
X016669Y005732D01*
X016719Y005741D01*
X016768Y005746D01*
X016819Y005747D01*
X016869Y005744D01*
X016918Y005737D01*
X016967Y005726D01*
X017015Y005711D01*
X017061Y005693D01*
X017106Y005671D01*
X017149Y005645D01*
X017190Y005616D01*
X017229Y005584D01*
X017265Y005549D01*
X017297Y005511D01*
X017327Y005471D01*
X017354Y005428D01*
X017377Y005384D01*
X017396Y005338D01*
X017412Y005290D01*
X017424Y005241D01*
X017432Y005192D01*
X017436Y005142D01*
X017436Y005092D01*
X017432Y005042D01*
X017424Y004993D01*
X017412Y004944D01*
X017396Y004896D01*
X017377Y004850D01*
X017354Y004806D01*
X017327Y004763D01*
X017297Y004723D01*
X017265Y004685D01*
X017229Y004650D01*
X017190Y004618D01*
X017149Y004589D01*
X017106Y004563D01*
X017061Y004541D01*
X017015Y004523D01*
X016967Y004508D01*
X016918Y004497D01*
X016869Y004490D01*
X016819Y004487D01*
X016768Y004488D01*
X016719Y004493D01*
X016669Y004502D01*
X016621Y004515D01*
X016574Y004531D01*
X016528Y004552D01*
X016484Y004576D01*
X016442Y004603D01*
X016402Y004633D01*
X016365Y004667D01*
X016331Y004704D01*
X016299Y004743D01*
X016271Y004784D01*
X016246Y004828D01*
X016225Y004873D01*
X016208Y004920D01*
X016194Y004968D01*
X016184Y005017D01*
X016178Y005067D01*
X016176Y005117D01*
D11*
X012392Y003329D02*
X012392Y003267D01*
X012330Y003205D01*
X012392Y003144D01*
X012392Y003082D01*
X012330Y003020D01*
X012207Y003020D01*
X012145Y003082D01*
X012023Y003082D02*
X011962Y003020D01*
X011838Y003020D01*
X011777Y003082D01*
X011777Y003329D01*
X011838Y003391D01*
X011962Y003391D01*
X012023Y003329D01*
X012145Y003329D02*
X012207Y003391D01*
X012330Y003391D01*
X012392Y003329D01*
X012330Y003205D02*
X012268Y003205D01*
X008043Y005336D02*
X008043Y005433D01*
X008043Y005384D02*
X007753Y005384D01*
X007753Y005336D02*
X007753Y005433D01*
X007801Y005533D02*
X007995Y005533D01*
X008043Y005581D01*
X008043Y005678D01*
X007995Y005726D01*
X008043Y005827D02*
X008043Y006021D01*
X008043Y005924D02*
X007753Y005924D01*
X007850Y005827D01*
X007801Y005726D02*
X007753Y005678D01*
X007753Y005581D01*
X007801Y005533D01*
X009088Y008520D02*
X009212Y008520D01*
X009273Y008582D01*
X009395Y008520D02*
X009642Y008520D01*
X009518Y008520D02*
X009518Y008891D01*
X009395Y008767D01*
X009273Y008829D02*
X009212Y008891D01*
X009088Y008891D01*
X009027Y008829D01*
X009027Y008582D01*
X009088Y008520D01*
X007017Y010145D02*
X006770Y010145D01*
X007017Y010392D01*
X007017Y010454D01*
X006955Y010516D01*
X006832Y010516D01*
X006770Y010454D01*
X006525Y010516D02*
X006525Y010145D01*
X006402Y010145D02*
X006648Y010145D01*
X006402Y010392D02*
X006525Y010516D01*
X006280Y010454D02*
X006218Y010516D01*
X006095Y010516D01*
X006033Y010454D01*
X006033Y010207D01*
X006095Y010145D01*
X006218Y010145D01*
X006280Y010207D01*
X004142Y010580D02*
X003895Y010580D01*
X004080Y010766D01*
X004080Y010395D01*
X003773Y010457D02*
X003712Y010395D01*
X003588Y010395D01*
X003527Y010457D01*
X003527Y010704D01*
X003588Y010766D01*
X003712Y010766D01*
X003773Y010704D01*
X001598Y011109D02*
X001537Y011109D01*
X001416Y011109D02*
X001173Y011109D01*
X001173Y011169D02*
X001173Y011048D01*
X001234Y010928D02*
X001173Y010867D01*
X001173Y010685D01*
X001113Y010685D02*
X001052Y010746D01*
X001052Y010806D01*
X001113Y010685D02*
X001416Y010685D01*
X001234Y010565D02*
X001234Y010504D01*
X001173Y010504D01*
X001173Y010565D01*
X001234Y010565D01*
X001234Y010384D02*
X001173Y010323D01*
X001173Y010141D01*
X001234Y010021D02*
X001173Y009961D01*
X001173Y009839D01*
X001234Y009779D01*
X001355Y009779D01*
X001416Y009839D01*
X001416Y009961D01*
X001355Y010021D01*
X001234Y010021D01*
X001416Y010141D02*
X001416Y010323D01*
X001355Y010384D01*
X001234Y010384D01*
X001234Y010928D02*
X001416Y010928D01*
X001416Y011109D02*
X001416Y011169D01*
X001416Y011289D02*
X001416Y011471D01*
X001355Y011532D01*
X001234Y011532D01*
X001173Y011471D01*
X001173Y011289D01*
X001537Y011289D01*
X001545Y011651D02*
X001593Y011699D01*
X001593Y011748D01*
X001545Y011796D01*
X001303Y011796D01*
X001303Y011748D02*
X001303Y011845D01*
X001295Y011893D02*
X001295Y012075D01*
X001234Y012136D01*
X001173Y012075D01*
X001173Y011893D01*
X001355Y011893D01*
X001416Y011954D01*
X001416Y012075D01*
X001448Y012139D02*
X001497Y012091D01*
X001497Y011946D01*
X001593Y011946D02*
X001303Y011946D01*
X001303Y012091D01*
X001351Y012139D01*
X001448Y012139D01*
X001351Y012240D02*
X001303Y012289D01*
X001303Y012386D01*
X001351Y012434D01*
X001400Y012434D01*
X001593Y012240D01*
X001593Y012434D01*
X001416Y012438D02*
X001416Y012316D01*
X001355Y012256D01*
X001295Y012256D01*
X001295Y012498D01*
X001355Y012498D02*
X001234Y012498D01*
X001173Y012438D01*
X001173Y012316D01*
X001355Y012498D02*
X001416Y012438D01*
X001416Y012618D02*
X001416Y012800D01*
X001355Y012861D01*
X001234Y012861D01*
X001173Y012800D01*
X001173Y012618D01*
X001537Y012618D01*
X001173Y012981D02*
X001173Y013102D01*
X001173Y013042D02*
X001416Y013042D01*
X001416Y013102D01*
X001537Y013042D02*
X001598Y013042D01*
X001416Y013404D02*
X001234Y013404D01*
X001173Y013464D01*
X001234Y013525D01*
X001173Y013586D01*
X001234Y013646D01*
X001416Y013646D01*
X001416Y013766D02*
X001234Y013766D01*
X001173Y013827D01*
X001234Y013887D01*
X001173Y013948D01*
X001234Y014009D01*
X001416Y014009D01*
X001416Y014129D02*
X001234Y014129D01*
X001173Y014189D01*
X001234Y014250D01*
X001173Y014311D01*
X001234Y014371D01*
X001416Y014371D01*
X001234Y013284D02*
X001234Y013223D01*
X001173Y013223D01*
X001173Y013284D01*
X001234Y013284D01*
X001173Y011773D02*
X001173Y011652D01*
X001173Y011713D02*
X001537Y011713D01*
X001537Y011773D01*
X003321Y012740D02*
X003444Y012740D01*
X003382Y012740D02*
X003382Y013110D01*
X003321Y013110D02*
X003444Y013110D01*
X003566Y013049D02*
X003566Y012802D01*
X003628Y012740D01*
X003751Y012740D01*
X003813Y012802D01*
X003935Y012802D02*
X003996Y012740D01*
X004120Y012740D01*
X004181Y012802D01*
X004181Y012864D01*
X004120Y012925D01*
X004058Y012925D01*
X004120Y012925D02*
X004181Y012987D01*
X004181Y013049D01*
X004120Y013110D01*
X003996Y013110D01*
X003935Y013049D01*
X003813Y013049D02*
X003751Y013110D01*
X003628Y013110D01*
X003566Y013049D01*
X003695Y013307D02*
X003633Y013369D01*
X003633Y013616D01*
X003695Y013677D01*
X003818Y013677D01*
X003880Y013616D01*
X004002Y013677D02*
X004002Y013492D01*
X004125Y013554D01*
X004187Y013554D01*
X004248Y013492D01*
X004248Y013369D01*
X004187Y013307D01*
X004063Y013307D01*
X004002Y013369D01*
X003880Y013369D02*
X003818Y013307D01*
X003695Y013307D01*
X004002Y013677D02*
X004248Y013677D01*
X004187Y014057D02*
X004248Y014119D01*
X004248Y014180D01*
X004187Y014242D01*
X004002Y014242D01*
X004002Y014119D01*
X004063Y014057D01*
X004187Y014057D01*
X004002Y014242D02*
X004125Y014366D01*
X004248Y014427D01*
X003880Y014366D02*
X003818Y014427D01*
X003695Y014427D01*
X003633Y014366D01*
X003633Y014119D01*
X003695Y014057D01*
X003818Y014057D01*
X003880Y014119D01*
X005573Y014024D02*
X005573Y013963D01*
X005635Y013901D01*
X005758Y013901D01*
X005820Y013963D01*
X005941Y013963D02*
X005941Y014024D01*
X006003Y014086D01*
X005941Y014148D01*
X005941Y014209D01*
X006003Y014271D01*
X006127Y014271D01*
X006188Y014209D01*
X006310Y014271D02*
X006557Y014271D01*
X006310Y014024D01*
X006310Y013963D01*
X006371Y013901D01*
X006495Y013901D01*
X006557Y013963D01*
X006678Y013963D02*
X006740Y013901D01*
X006863Y013901D01*
X006925Y013963D01*
X006925Y014024D01*
X006863Y014086D01*
X006740Y014086D01*
X006678Y014148D01*
X006678Y014209D01*
X006740Y014271D01*
X006863Y014271D01*
X006925Y014209D01*
X007046Y014271D02*
X007170Y014148D01*
X007108Y014148D02*
X007293Y014148D01*
X007293Y014271D02*
X007293Y013901D01*
X007108Y013901D01*
X007046Y013963D01*
X007046Y014086D01*
X007108Y014148D01*
X006188Y013963D02*
X006127Y013901D01*
X006003Y013901D01*
X005941Y013963D01*
X006003Y014086D02*
X006065Y014086D01*
X005820Y014271D02*
X005573Y014024D01*
X005573Y014271D02*
X005820Y014271D01*
X008185Y014271D02*
X008432Y014271D01*
X008432Y013901D01*
X008553Y013901D02*
X008800Y013901D01*
X008921Y013901D02*
X009168Y013901D01*
X009045Y013901D02*
X009045Y014271D01*
X008677Y014271D02*
X008677Y013901D01*
X010073Y013901D02*
X010073Y014148D01*
X010197Y014271D01*
X010320Y014148D01*
X010320Y013901D01*
X010441Y013901D02*
X010688Y013901D01*
X010688Y014086D01*
X010565Y014024D01*
X010503Y014024D01*
X010441Y014086D01*
X010441Y014209D01*
X010503Y014271D01*
X010627Y014271D01*
X010688Y014209D01*
X010810Y014271D02*
X011057Y014271D01*
X010933Y014271D02*
X010933Y013901D01*
X011057Y014024D01*
X011178Y014086D02*
X011425Y014086D01*
X011546Y013963D02*
X011793Y014209D01*
X011793Y014271D01*
X011793Y013901D02*
X011546Y013901D01*
X011546Y013963D01*
X012928Y013901D02*
X012928Y014148D01*
X013052Y014271D01*
X013175Y014148D01*
X013175Y013901D01*
X013296Y013901D02*
X013543Y013901D01*
X013543Y014086D01*
X013420Y014024D01*
X013358Y014024D01*
X013296Y014086D01*
X013296Y014209D01*
X013358Y014271D01*
X013482Y014271D01*
X013543Y014209D01*
X015016Y012120D02*
X015262Y011873D01*
X015324Y011934D01*
X015324Y012058D01*
X015262Y012120D01*
X015016Y012120D01*
X014954Y012058D01*
X014954Y011934D01*
X015016Y011873D01*
X015262Y011873D01*
X015324Y011751D02*
X015324Y011504D01*
X015324Y011628D02*
X014954Y011628D01*
X015077Y011504D01*
X015016Y011383D02*
X014954Y011321D01*
X014954Y011198D01*
X015016Y011136D01*
X015262Y011136D01*
X015324Y011198D01*
X015324Y011321D01*
X015262Y011383D01*
X017667Y011673D02*
X017729Y011611D01*
X017976Y011611D01*
X018037Y011673D01*
X018037Y011796D01*
X017976Y011858D01*
X017976Y011979D02*
X018037Y012041D01*
X018037Y012165D01*
X017976Y012226D01*
X017729Y012226D01*
X017667Y012165D01*
X017667Y012041D01*
X017729Y011979D01*
X017791Y011979D01*
X017852Y012041D01*
X017852Y012226D01*
X017729Y011858D02*
X017667Y011796D01*
X017667Y011673D01*
X001416Y009659D02*
X001416Y009598D01*
X001355Y009538D01*
X001416Y009477D01*
X001355Y009416D01*
X001173Y009416D01*
X001173Y009538D02*
X001355Y009538D01*
X001416Y009659D02*
X001173Y009659D01*
X001166Y009101D02*
X001104Y009101D01*
X001042Y009040D01*
X001042Y008916D01*
X001104Y008854D01*
X001104Y008733D02*
X001042Y008671D01*
X001042Y008548D01*
X001104Y008486D01*
X001351Y008486D01*
X001412Y008548D01*
X001412Y008671D01*
X001351Y008733D01*
X001412Y008854D02*
X001166Y009101D01*
X001412Y009101D02*
X001412Y008854D01*
D12*
X002128Y008201D02*
X002128Y009621D01*
X003988Y009621D02*
X003988Y008201D01*
X001677Y005117D02*
X001679Y005190D01*
X001685Y005263D01*
X001695Y005335D01*
X001709Y005407D01*
X001726Y005478D01*
X001748Y005548D01*
X001773Y005617D01*
X001802Y005684D01*
X001834Y005749D01*
X001870Y005813D01*
X001910Y005875D01*
X001952Y005934D01*
X001998Y005991D01*
X002047Y006045D01*
X002099Y006097D01*
X002153Y006146D01*
X002210Y006192D01*
X002269Y006234D01*
X002331Y006274D01*
X002395Y006310D01*
X002460Y006342D01*
X002527Y006371D01*
X002596Y006396D01*
X002666Y006418D01*
X002737Y006435D01*
X002809Y006449D01*
X002881Y006459D01*
X002954Y006465D01*
X003027Y006467D01*
X003100Y006465D01*
X003173Y006459D01*
X003245Y006449D01*
X003317Y006435D01*
X003388Y006418D01*
X003458Y006396D01*
X003527Y006371D01*
X003594Y006342D01*
X003659Y006310D01*
X003723Y006274D01*
X003785Y006234D01*
X003844Y006192D01*
X003901Y006146D01*
X003955Y006097D01*
X004007Y006045D01*
X004056Y005991D01*
X004102Y005934D01*
X004144Y005875D01*
X004184Y005813D01*
X004220Y005749D01*
X004252Y005684D01*
X004281Y005617D01*
X004306Y005548D01*
X004328Y005478D01*
X004345Y005407D01*
X004359Y005335D01*
X004369Y005263D01*
X004375Y005190D01*
X004377Y005117D01*
X004375Y005044D01*
X004369Y004971D01*
X004359Y004899D01*
X004345Y004827D01*
X004328Y004756D01*
X004306Y004686D01*
X004281Y004617D01*
X004252Y004550D01*
X004220Y004485D01*
X004184Y004421D01*
X004144Y004359D01*
X004102Y004300D01*
X004056Y004243D01*
X004007Y004189D01*
X003955Y004137D01*
X003901Y004088D01*
X003844Y004042D01*
X003785Y004000D01*
X003723Y003960D01*
X003659Y003924D01*
X003594Y003892D01*
X003527Y003863D01*
X003458Y003838D01*
X003388Y003816D01*
X003317Y003799D01*
X003245Y003785D01*
X003173Y003775D01*
X003100Y003769D01*
X003027Y003767D01*
X002954Y003769D01*
X002881Y003775D01*
X002809Y003785D01*
X002737Y003799D01*
X002666Y003816D01*
X002596Y003838D01*
X002527Y003863D01*
X002460Y003892D01*
X002395Y003924D01*
X002331Y003960D01*
X002269Y004000D01*
X002210Y004042D01*
X002153Y004088D01*
X002099Y004137D01*
X002047Y004189D01*
X001998Y004243D01*
X001952Y004300D01*
X001910Y004359D01*
X001870Y004421D01*
X001834Y004485D01*
X001802Y004550D01*
X001773Y004617D01*
X001748Y004686D01*
X001726Y004756D01*
X001709Y004827D01*
X001695Y004899D01*
X001685Y004971D01*
X001679Y005044D01*
X001677Y005117D01*
X002183Y003361D02*
X017683Y003361D01*
X017713Y003359D01*
X017743Y003354D01*
X017772Y003345D01*
X017799Y003332D01*
X017825Y003317D01*
X017849Y003298D01*
X017870Y003277D01*
X017889Y003253D01*
X017904Y003227D01*
X017917Y003200D01*
X017926Y003171D01*
X017931Y003141D01*
X017933Y003111D01*
X017933Y001211D01*
X017931Y001181D01*
X017926Y001151D01*
X017917Y001122D01*
X017904Y001095D01*
X017889Y001069D01*
X017870Y001045D01*
X017849Y001024D01*
X017825Y001005D01*
X017799Y000990D01*
X017772Y000977D01*
X017743Y000968D01*
X017713Y000963D01*
X017683Y000961D01*
X002183Y000961D01*
X002153Y000963D01*
X002123Y000968D01*
X002094Y000977D01*
X002067Y000990D01*
X002041Y001005D01*
X002017Y001024D01*
X001996Y001045D01*
X001977Y001069D01*
X001962Y001095D01*
X001949Y001122D01*
X001940Y001151D01*
X001935Y001181D01*
X001933Y001211D01*
X001933Y003111D01*
X001935Y003141D01*
X001940Y003171D01*
X001949Y003200D01*
X001962Y003227D01*
X001977Y003253D01*
X001996Y003277D01*
X002017Y003298D01*
X002041Y003317D01*
X002067Y003332D01*
X002094Y003345D01*
X002123Y003354D01*
X002153Y003359D01*
X002183Y003361D01*
X005808Y003761D02*
X005908Y003661D01*
X006708Y003661D01*
X006808Y003761D01*
X006908Y003661D01*
X007708Y003661D01*
X007808Y003761D01*
X007808Y004561D01*
X007708Y004661D01*
X006908Y004661D01*
X006808Y004561D01*
X006708Y004661D01*
X005908Y004661D01*
X005808Y004561D01*
X005808Y003761D01*
X008678Y005171D02*
X008818Y005031D01*
X011438Y005031D01*
X011438Y007791D01*
X008678Y007791D01*
X008678Y005171D01*
X008837Y005331D02*
X008839Y005354D01*
X008845Y005377D01*
X008854Y005398D01*
X008867Y005418D01*
X008883Y005435D01*
X008901Y005449D01*
X008921Y005460D01*
X008943Y005468D01*
X008966Y005472D01*
X008990Y005472D01*
X009013Y005468D01*
X009035Y005460D01*
X009055Y005449D01*
X009073Y005435D01*
X009089Y005418D01*
X009102Y005398D01*
X009111Y005377D01*
X009117Y005354D01*
X009119Y005331D01*
X009117Y005308D01*
X009111Y005285D01*
X009102Y005264D01*
X009089Y005244D01*
X009073Y005227D01*
X009055Y005213D01*
X009035Y005202D01*
X009013Y005194D01*
X008990Y005190D01*
X008966Y005190D01*
X008943Y005194D01*
X008921Y005202D01*
X008901Y005213D01*
X008883Y005227D01*
X008867Y005244D01*
X008854Y005264D01*
X008845Y005285D01*
X008839Y005308D01*
X008837Y005331D01*
X002458Y011486D02*
X002458Y012586D01*
X002456Y012603D01*
X002452Y012620D01*
X002445Y012636D01*
X002435Y012650D01*
X002422Y012663D01*
X002408Y012673D01*
X002392Y012680D01*
X002375Y012684D01*
X002358Y012686D01*
X001758Y012686D01*
X001741Y012684D01*
X001724Y012680D01*
X001708Y012673D01*
X001694Y012663D01*
X001681Y012650D01*
X001671Y012636D01*
X001664Y012620D01*
X001660Y012603D01*
X001658Y012586D01*
X001658Y011486D01*
X001660Y011469D01*
X001664Y011452D01*
X001671Y011436D01*
X001681Y011422D01*
X001694Y011409D01*
X001708Y011399D01*
X001724Y011392D01*
X001741Y011388D01*
X001758Y011386D01*
X002358Y011386D01*
X002375Y011388D01*
X002392Y011392D01*
X002408Y011399D01*
X002422Y011409D01*
X002435Y011422D01*
X002445Y011436D01*
X002452Y011452D01*
X002456Y011469D01*
X002458Y011486D01*
X006088Y011566D02*
X006315Y011906D01*
X006457Y011736D02*
X006627Y011736D01*
X006683Y011680D01*
X006683Y011623D01*
X006627Y011566D01*
X006513Y011566D01*
X006457Y011623D01*
X006457Y011736D01*
X006570Y011850D01*
X006683Y011906D01*
X006315Y011566D02*
X006088Y011906D01*
X008463Y011906D02*
X008690Y011566D01*
X008832Y011623D02*
X008888Y011566D01*
X009002Y011566D01*
X009058Y011623D01*
X009058Y011736D01*
X009002Y011793D01*
X008945Y011793D01*
X008832Y011736D01*
X008832Y011906D01*
X009058Y011906D01*
X008690Y011906D02*
X008463Y011566D01*
X010713Y011566D02*
X010940Y011906D01*
X011082Y011736D02*
X011308Y011736D01*
X011252Y011566D02*
X011252Y011906D01*
X011082Y011736D01*
X010940Y011566D02*
X010713Y011906D01*
X012963Y011906D02*
X013190Y011566D01*
X013332Y011623D02*
X013388Y011566D01*
X013502Y011566D01*
X013558Y011623D01*
X013558Y011680D01*
X013502Y011736D01*
X013445Y011736D01*
X013502Y011736D02*
X013558Y011793D01*
X013558Y011850D01*
X013502Y011906D01*
X013388Y011906D01*
X013332Y011850D01*
X013190Y011906D02*
X012963Y011566D01*
X015328Y012066D02*
X017788Y012066D01*
X017788Y013428D01*
X015328Y013428D01*
X015328Y012066D01*
X015456Y005117D02*
X015458Y005190D01*
X015464Y005263D01*
X015474Y005335D01*
X015488Y005407D01*
X015505Y005478D01*
X015527Y005548D01*
X015552Y005617D01*
X015581Y005684D01*
X015613Y005749D01*
X015649Y005813D01*
X015689Y005875D01*
X015731Y005934D01*
X015777Y005991D01*
X015826Y006045D01*
X015878Y006097D01*
X015932Y006146D01*
X015989Y006192D01*
X016048Y006234D01*
X016110Y006274D01*
X016174Y006310D01*
X016239Y006342D01*
X016306Y006371D01*
X016375Y006396D01*
X016445Y006418D01*
X016516Y006435D01*
X016588Y006449D01*
X016660Y006459D01*
X016733Y006465D01*
X016806Y006467D01*
X016879Y006465D01*
X016952Y006459D01*
X017024Y006449D01*
X017096Y006435D01*
X017167Y006418D01*
X017237Y006396D01*
X017306Y006371D01*
X017373Y006342D01*
X017438Y006310D01*
X017502Y006274D01*
X017564Y006234D01*
X017623Y006192D01*
X017680Y006146D01*
X017734Y006097D01*
X017786Y006045D01*
X017835Y005991D01*
X017881Y005934D01*
X017923Y005875D01*
X017963Y005813D01*
X017999Y005749D01*
X018031Y005684D01*
X018060Y005617D01*
X018085Y005548D01*
X018107Y005478D01*
X018124Y005407D01*
X018138Y005335D01*
X018148Y005263D01*
X018154Y005190D01*
X018156Y005117D01*
X018154Y005044D01*
X018148Y004971D01*
X018138Y004899D01*
X018124Y004827D01*
X018107Y004756D01*
X018085Y004686D01*
X018060Y004617D01*
X018031Y004550D01*
X017999Y004485D01*
X017963Y004421D01*
X017923Y004359D01*
X017881Y004300D01*
X017835Y004243D01*
X017786Y004189D01*
X017734Y004137D01*
X017680Y004088D01*
X017623Y004042D01*
X017564Y004000D01*
X017502Y003960D01*
X017438Y003924D01*
X017373Y003892D01*
X017306Y003863D01*
X017237Y003838D01*
X017167Y003816D01*
X017096Y003799D01*
X017024Y003785D01*
X016952Y003775D01*
X016879Y003769D01*
X016806Y003767D01*
X016733Y003769D01*
X016660Y003775D01*
X016588Y003785D01*
X016516Y003799D01*
X016445Y003816D01*
X016375Y003838D01*
X016306Y003863D01*
X016239Y003892D01*
X016174Y003924D01*
X016110Y003960D01*
X016048Y004000D01*
X015989Y004042D01*
X015932Y004088D01*
X015878Y004137D01*
X015826Y004189D01*
X015777Y004243D01*
X015731Y004300D01*
X015689Y004359D01*
X015649Y004421D01*
X015613Y004485D01*
X015581Y004550D01*
X015552Y004617D01*
X015527Y004686D01*
X015505Y004756D01*
X015488Y004827D01*
X015474Y004899D01*
X015464Y004971D01*
X015458Y005044D01*
X015456Y005117D01*
D13*
X015255Y007571D02*
X014861Y007571D01*
X014861Y008752D01*
X015255Y008752D01*
X015255Y007571D01*
X016083Y012597D02*
X016233Y012597D01*
X016158Y012597D02*
X016158Y013047D01*
X016083Y013047D02*
X016233Y013047D01*
X016390Y012972D02*
X016390Y012672D01*
X016465Y012597D01*
X016615Y012597D01*
X016690Y012672D01*
X016851Y012822D02*
X017151Y012822D01*
X017076Y012597D02*
X017076Y013047D01*
X016851Y012822D01*
X016690Y012972D02*
X016615Y013047D01*
X016465Y013047D01*
X016390Y012972D01*
X006880Y007002D02*
X006880Y005821D01*
X006486Y005821D01*
X006486Y007002D01*
X006880Y007002D01*
X006904Y005286D02*
X006904Y004836D01*
X006754Y004836D02*
X007054Y004836D01*
X006754Y005136D02*
X006904Y005286D01*
X006594Y005211D02*
X006594Y005061D01*
X006519Y004986D01*
X006294Y004986D01*
X006294Y004836D02*
X006294Y005286D01*
X006519Y005286D01*
X006594Y005211D01*
X006134Y005286D02*
X005983Y005286D01*
X006058Y005286D02*
X006058Y004911D01*
X005983Y004836D01*
X005908Y004836D01*
X005833Y004911D01*
X005069Y003986D02*
X005069Y003536D01*
X004919Y003536D02*
X005219Y003536D01*
X004919Y003836D02*
X005069Y003986D01*
X004759Y003986D02*
X004458Y003536D01*
X004759Y003536D02*
X004458Y003986D01*
X002072Y002661D02*
X002074Y002699D01*
X002080Y002736D01*
X002090Y002773D01*
X002103Y002808D01*
X002120Y002841D01*
X002141Y002873D01*
X002165Y002903D01*
X002191Y002929D01*
X002221Y002953D01*
X002252Y002974D01*
X002286Y002991D01*
X002321Y003004D01*
X002358Y003014D01*
X002395Y003020D01*
X002433Y003022D01*
X002471Y003020D01*
X002508Y003014D01*
X002545Y003004D01*
X002580Y002991D01*
X002613Y002974D01*
X002645Y002953D01*
X002675Y002929D01*
X002701Y002903D01*
X002725Y002873D01*
X002746Y002842D01*
X002763Y002808D01*
X002776Y002773D01*
X002786Y002736D01*
X002792Y002699D01*
X002794Y002661D01*
X002792Y002623D01*
X002786Y002586D01*
X002776Y002549D01*
X002763Y002514D01*
X002746Y002481D01*
X002725Y002449D01*
X002701Y002419D01*
X002675Y002393D01*
X002645Y002369D01*
X002614Y002348D01*
X002580Y002331D01*
X002545Y002318D01*
X002508Y002308D01*
X002471Y002302D01*
X002433Y002300D01*
X002395Y002302D01*
X002358Y002308D01*
X002321Y002318D01*
X002286Y002331D01*
X002253Y002348D01*
X002221Y002369D01*
X002191Y002393D01*
X002165Y002419D01*
X002141Y002449D01*
X002120Y002480D01*
X002103Y002514D01*
X002090Y002549D01*
X002080Y002586D01*
X002074Y002623D01*
X002072Y002661D01*
X004158Y008508D02*
X004158Y008659D01*
X004158Y008584D02*
X004608Y008584D01*
X004608Y008659D02*
X004608Y008508D01*
X004533Y008815D02*
X004233Y008815D01*
X004158Y008890D01*
X004158Y009041D01*
X004233Y009116D01*
X004233Y009276D02*
X004158Y009351D01*
X004158Y009501D01*
X004233Y009576D01*
X004308Y009576D01*
X004608Y009276D01*
X004608Y009576D01*
X004533Y009116D02*
X004608Y009041D01*
X004608Y008890D01*
X004533Y008815D01*
D14*
X004484Y011426D02*
X003382Y011426D01*
X003369Y011427D01*
X003356Y011432D01*
X003345Y011439D01*
X003336Y011448D01*
X003329Y011459D01*
X003324Y011472D01*
X003323Y011485D01*
X003323Y012587D01*
X003324Y012600D01*
X003329Y012613D01*
X003336Y012624D01*
X003345Y012633D01*
X003356Y012640D01*
X003369Y012645D01*
X003382Y012646D01*
X004484Y012646D01*
X004497Y012645D01*
X004510Y012640D01*
X004521Y012633D01*
X004530Y012624D01*
X004537Y012613D01*
X004542Y012600D01*
X004543Y012587D01*
X004544Y012587D02*
X004544Y011485D01*
X004543Y011485D02*
X004542Y011472D01*
X004537Y011459D01*
X004530Y011448D01*
X004521Y011439D01*
X004510Y011432D01*
X004497Y011427D01*
X004484Y011426D01*
X010374Y010541D02*
X010374Y010384D01*
X010532Y010384D01*
X010532Y010541D02*
X010374Y010541D01*
X010374Y010187D02*
X010374Y009636D01*
X010532Y009636D01*
X010532Y009439D02*
X010374Y009439D01*
X010374Y009281D01*
X010532Y009281D01*
X010571Y008966D02*
X014295Y008966D01*
X014295Y010856D01*
X010571Y010856D01*
X010571Y008966D01*
X010886Y009124D02*
X010886Y010699D01*
X013981Y010699D01*
X013981Y009124D01*
X010886Y009124D01*
X010532Y010187D02*
X010374Y010187D01*
X014335Y010187D02*
X014492Y010187D01*
X014492Y009636D01*
X014335Y009636D01*
X014335Y009439D02*
X014492Y009439D01*
X014492Y009281D01*
X014335Y009281D01*
X014335Y010384D02*
X014492Y010384D01*
X014492Y010541D01*
X014335Y010541D01*
X015954Y010725D02*
X017163Y010725D01*
X017163Y010097D02*
X015954Y010097D01*
X016137Y005117D02*
X016139Y005168D01*
X016145Y005219D01*
X016155Y005269D01*
X016168Y005319D01*
X016186Y005367D01*
X016206Y005414D01*
X016231Y005459D01*
X016259Y005502D01*
X016290Y005543D01*
X016324Y005581D01*
X016361Y005616D01*
X016400Y005649D01*
X016442Y005679D01*
X016486Y005705D01*
X016532Y005727D01*
X016580Y005747D01*
X016629Y005762D01*
X016679Y005774D01*
X016729Y005782D01*
X016780Y005786D01*
X016832Y005786D01*
X016883Y005782D01*
X016933Y005774D01*
X016983Y005762D01*
X017032Y005747D01*
X017080Y005727D01*
X017126Y005705D01*
X017170Y005679D01*
X017212Y005649D01*
X017251Y005616D01*
X017288Y005581D01*
X017322Y005543D01*
X017353Y005502D01*
X017381Y005459D01*
X017406Y005414D01*
X017426Y005367D01*
X017444Y005319D01*
X017457Y005269D01*
X017467Y005219D01*
X017473Y005168D01*
X017475Y005117D01*
X017473Y005066D01*
X017467Y005015D01*
X017457Y004965D01*
X017444Y004915D01*
X017426Y004867D01*
X017406Y004820D01*
X017381Y004775D01*
X017353Y004732D01*
X017322Y004691D01*
X017288Y004653D01*
X017251Y004618D01*
X017212Y004585D01*
X017170Y004555D01*
X017126Y004529D01*
X017080Y004507D01*
X017032Y004487D01*
X016983Y004472D01*
X016933Y004460D01*
X016883Y004452D01*
X016832Y004448D01*
X016780Y004448D01*
X016729Y004452D01*
X016679Y004460D01*
X016629Y004472D01*
X016580Y004487D01*
X016532Y004507D01*
X016486Y004529D01*
X016442Y004555D01*
X016400Y004585D01*
X016361Y004618D01*
X016324Y004653D01*
X016290Y004691D01*
X016259Y004732D01*
X016231Y004775D01*
X016206Y004820D01*
X016186Y004867D01*
X016168Y004915D01*
X016155Y004965D01*
X016145Y005015D01*
X016139Y005066D01*
X016137Y005117D01*
X002358Y005117D02*
X002360Y005168D01*
X002366Y005219D01*
X002376Y005269D01*
X002389Y005319D01*
X002407Y005367D01*
X002427Y005414D01*
X002452Y005459D01*
X002480Y005502D01*
X002511Y005543D01*
X002545Y005581D01*
X002582Y005616D01*
X002621Y005649D01*
X002663Y005679D01*
X002707Y005705D01*
X002753Y005727D01*
X002801Y005747D01*
X002850Y005762D01*
X002900Y005774D01*
X002950Y005782D01*
X003001Y005786D01*
X003053Y005786D01*
X003104Y005782D01*
X003154Y005774D01*
X003204Y005762D01*
X003253Y005747D01*
X003301Y005727D01*
X003347Y005705D01*
X003391Y005679D01*
X003433Y005649D01*
X003472Y005616D01*
X003509Y005581D01*
X003543Y005543D01*
X003574Y005502D01*
X003602Y005459D01*
X003627Y005414D01*
X003647Y005367D01*
X003665Y005319D01*
X003678Y005269D01*
X003688Y005219D01*
X003694Y005168D01*
X003696Y005117D01*
X003694Y005066D01*
X003688Y005015D01*
X003678Y004965D01*
X003665Y004915D01*
X003647Y004867D01*
X003627Y004820D01*
X003602Y004775D01*
X003574Y004732D01*
X003543Y004691D01*
X003509Y004653D01*
X003472Y004618D01*
X003433Y004585D01*
X003391Y004555D01*
X003347Y004529D01*
X003301Y004507D01*
X003253Y004487D01*
X003204Y004472D01*
X003154Y004460D01*
X003104Y004452D01*
X003053Y004448D01*
X003001Y004448D01*
X002950Y004452D01*
X002900Y004460D01*
X002850Y004472D01*
X002801Y004487D01*
X002753Y004507D01*
X002707Y004529D01*
X002663Y004555D01*
X002621Y004585D01*
X002582Y004618D01*
X002545Y004653D01*
X002511Y004691D01*
X002480Y004732D01*
X002452Y004775D01*
X002427Y004820D01*
X002407Y004867D01*
X002389Y004915D01*
X002376Y004965D01*
X002366Y005015D01*
X002360Y005066D01*
X002358Y005117D01*
D15*
X006811Y008431D02*
X006811Y008891D01*
X006658Y008891D02*
X006964Y008891D01*
X007118Y008738D02*
X007271Y008891D01*
X007271Y008431D01*
X007118Y008431D02*
X007425Y008431D01*
X007485Y009506D02*
X007485Y009736D01*
X007408Y009813D01*
X007255Y009813D01*
X007178Y009736D01*
X007178Y009506D01*
X007638Y009506D01*
X007485Y009660D02*
X007638Y009813D01*
X007638Y009966D02*
X007331Y010273D01*
X007255Y010273D01*
X007178Y010197D01*
X007178Y010043D01*
X007255Y009966D01*
X007638Y009966D02*
X007638Y010273D01*
X010610Y009911D02*
X010729Y009911D01*
X010847Y009793D01*
X010768Y009832D02*
X010729Y009793D01*
X010610Y009793D01*
X010729Y009793D02*
X010729Y009399D01*
X010610Y009399D01*
X010610Y009281D02*
X010729Y009281D01*
X010847Y009399D01*
X010768Y009360D02*
X010729Y009399D01*
X010729Y009281D02*
X010847Y009281D01*
X010847Y009911D02*
X010729Y009911D01*
X012783Y008891D02*
X013089Y008431D01*
X013243Y008431D02*
X013550Y008738D01*
X013550Y008815D01*
X013473Y008891D01*
X013320Y008891D01*
X013243Y008815D01*
X013089Y008891D02*
X012783Y008431D01*
X013243Y008431D02*
X013550Y008431D01*
X016055Y010881D02*
X016208Y010881D01*
X016285Y010958D01*
X016439Y010881D02*
X016746Y010881D01*
X016899Y010881D02*
X017206Y010881D01*
X017052Y010881D02*
X017052Y011341D01*
X016899Y011188D01*
X016592Y011341D02*
X016592Y010881D01*
X016439Y011188D02*
X016592Y011341D01*
X016285Y011265D02*
X016208Y011341D01*
X016055Y011341D01*
X015978Y011265D01*
X015978Y010958D01*
X016055Y010881D01*
X016828Y010141D02*
X016828Y009681D01*
X017135Y009681D01*
X017289Y009681D02*
X017596Y009681D01*
X017749Y009681D02*
X017979Y009681D01*
X018056Y009758D01*
X018056Y010065D01*
X017979Y010141D01*
X017749Y010141D01*
X017749Y009681D01*
X017442Y009911D02*
X017289Y009911D01*
X017289Y010141D02*
X017289Y009681D01*
X017289Y009266D02*
X017289Y008806D01*
X017596Y008806D01*
X017749Y008806D02*
X017979Y008806D01*
X018056Y008883D01*
X018056Y009190D01*
X017979Y009266D01*
X017749Y009266D01*
X017749Y008806D01*
X017442Y009036D02*
X017289Y009036D01*
X017289Y009266D02*
X017596Y009266D01*
X018209Y009190D02*
X018286Y009266D01*
X018439Y009266D01*
X018516Y009190D01*
X018516Y009113D01*
X018209Y008806D01*
X018516Y008806D01*
X018439Y008391D02*
X018286Y008391D01*
X018209Y008315D01*
X018056Y008315D02*
X017979Y008391D01*
X017749Y008391D01*
X017749Y007931D01*
X017979Y007931D01*
X018056Y008008D01*
X018056Y008315D01*
X018363Y008161D02*
X018439Y008161D01*
X018516Y008085D01*
X018516Y008008D01*
X018439Y007931D01*
X018286Y007931D01*
X018209Y008008D01*
X018439Y008161D02*
X018516Y008238D01*
X018516Y008315D01*
X018439Y008391D01*
X017596Y008391D02*
X017289Y008391D01*
X017289Y007931D01*
X017596Y007931D01*
X017442Y008161D02*
X017289Y008161D01*
X017135Y007931D02*
X016828Y007931D01*
X016828Y008391D01*
X016828Y008806D02*
X017135Y008806D01*
X016828Y008806D02*
X016828Y009266D01*
X017289Y010141D02*
X017596Y010141D01*
X018209Y009988D02*
X018363Y010141D01*
X018363Y009681D01*
X018516Y009681D02*
X018209Y009681D01*
X004138Y009523D02*
X004138Y009216D01*
X004138Y009063D02*
X003985Y008910D01*
X003985Y008986D02*
X003985Y008756D01*
X004138Y008756D02*
X003678Y008756D01*
X003678Y008986D01*
X003755Y009063D01*
X003908Y009063D01*
X003985Y008986D01*
X003831Y009216D02*
X003678Y009370D01*
X004138Y009370D01*
D16*
X005433Y011286D02*
X005433Y013036D01*
X007433Y013036D01*
X007433Y011286D01*
X005433Y011286D01*
X007683Y011286D02*
X007683Y013036D01*
X009683Y013036D01*
X009683Y011286D01*
X007683Y011286D01*
X007683Y013036D02*
X007683Y013786D01*
X009683Y013786D01*
X009683Y013036D01*
X009933Y013036D02*
X011933Y013036D01*
X011933Y011286D01*
X009933Y011286D01*
X009933Y013036D01*
X009933Y013786D01*
X011933Y013786D01*
X011933Y013036D01*
X012183Y013036D02*
X014183Y013036D01*
X014183Y011286D01*
X012183Y011286D01*
X012183Y013036D01*
X012183Y013786D01*
X014183Y013786D01*
X014183Y013036D01*
X007433Y013036D02*
X007433Y013786D01*
X005433Y013786D01*
X005433Y013036D01*
D17*
X017530Y009432D03*
X017530Y008890D03*
X017530Y008557D03*
X017530Y008015D03*
X017530Y007682D03*
X017530Y007140D03*
D18*
X017377Y007411D03*
X017377Y008286D03*
X017377Y009161D03*
D19*
X003500Y012469D03*
D20*
X003628Y009301D02*
X003630Y009324D01*
X003636Y009346D01*
X003645Y009368D01*
X003658Y009387D01*
X003673Y009404D01*
X003691Y009418D01*
X003712Y009429D01*
X003734Y009437D01*
X003756Y009441D01*
X003780Y009441D01*
X003802Y009437D01*
X003824Y009429D01*
X003845Y009418D01*
X003863Y009404D01*
X003878Y009387D01*
X003891Y009368D01*
X003900Y009346D01*
X003906Y009324D01*
X003908Y009301D01*
X003906Y009278D01*
X003900Y009256D01*
X003891Y009234D01*
X003878Y009215D01*
X003863Y009198D01*
X003845Y009184D01*
X003824Y009173D01*
X003802Y009165D01*
X003780Y009161D01*
X003756Y009161D01*
X003734Y009165D01*
X003712Y009173D01*
X003691Y009184D01*
X003673Y009198D01*
X003658Y009215D01*
X003645Y009234D01*
X003636Y009256D01*
X003630Y009278D01*
X003628Y009301D01*
M02*
