%
M48
M72
T01C0.0118
T02C0.0240
T03C0.0320
T04C0.0360
T05C0.0394
T06C0.0630
T07C0.1260
%
T01
X6933Y5536
X7558Y5036
X7808Y5536
X8933Y5911
X9058Y6286
X9558Y5411
X10183Y5411
X10808Y4161
X12558Y5661
X13383Y5936
X14183Y7911
X13808Y8286
X15183Y10786
X18058Y9786
X18308Y12911
X9933Y7536
X7672Y6574
X7357Y6889
X7433Y9161
X3933Y11911
X3058Y11036
X2308Y9161
X2830Y7125
X3499Y7125
X2058Y13536
X5058Y13786
T02
X5858Y10746
T03
X11183Y9411
X12183Y9411
X13183Y9411
X12683Y10411
X11683Y10411
X13683Y10411
T04
X2433Y1661
X3433Y1661
X4433Y1661
X5433Y1661
X6433Y1661
X7433Y1661
X8433Y1661
X9433Y1661
X10433Y1661
X11433Y1661
X12433Y1661
X13433Y1661
X14433Y1661
X15433Y1661
X16433Y1661
X17433Y1661
X17433Y2661
X16433Y2661
X15433Y2661
X14433Y2661
X13433Y2661
X12433Y2661
X11433Y2661
X10433Y2661
X9433Y2661
X8433Y2661
X7433Y2661
X6433Y2661
X5433Y2661
X4433Y2661
X3433Y2661
X2433Y2661
X6308Y4161
X7308Y4161
T05
X6933Y12536
X5933Y12536
X8183Y12536
X9183Y12536
X10433Y12536
X11433Y12536
X12683Y12536
X13683Y12536
T06
X10494Y10036
T07
X16806Y5117
X3027Y5117
M30
