G75*
G70*
%OFA0B0*%
%FSLAX24Y24*%
%IPPOS*%
%LPD*%
%AMOC8*
5,1,8,0,0,1.08239X$1,22.5*
%
%ADD10C,0.0710*%
%ADD11C,0.0081*%
%ADD12OC8,0.0640*%
%ADD13C,0.0600*%
%ADD14C,0.0084*%
%ADD15C,0.0083*%
%ADD16R,0.0720X0.0060*%
%ADD17C,0.0080*%
%ADD18C,0.0087*%
%ADD19C,0.1340*%
%ADD20C,0.0674*%
%ADD21C,0.0080*%
%ADD22C,0.0081*%
%ADD23C,0.0080*%
%ADD24C,0.0080*%
%ADD25C,0.0081*%
%ADD26C,0.0640*%
%ADD27C,0.0358*%
%ADD28C,0.0480*%
D10*
X010494Y010036D03*
D11*
X010641Y008351D02*
X010641Y007851D01*
X010421Y007851D01*
X010421Y008351D01*
X010641Y008351D01*
X010641Y007931D02*
X010421Y007931D01*
X010421Y008011D02*
X010641Y008011D01*
X010641Y008091D02*
X010421Y008091D01*
X010421Y008171D02*
X010641Y008171D01*
X010641Y008251D02*
X010421Y008251D01*
X010421Y008331D02*
X010641Y008331D01*
X010956Y008351D02*
X010956Y007851D01*
X010736Y007851D01*
X010736Y008351D01*
X010956Y008351D01*
X010956Y007931D02*
X010736Y007931D01*
X010736Y008011D02*
X010956Y008011D01*
X010956Y008091D02*
X010736Y008091D01*
X010736Y008171D02*
X010956Y008171D01*
X010956Y008251D02*
X010736Y008251D01*
X010736Y008331D02*
X010956Y008331D01*
X011271Y008351D02*
X011271Y007851D01*
X011051Y007851D01*
X011051Y008351D01*
X011271Y008351D01*
X011271Y007931D02*
X011051Y007931D01*
X011051Y008011D02*
X011271Y008011D01*
X011271Y008091D02*
X011051Y008091D01*
X011051Y008171D02*
X011271Y008171D01*
X011271Y008251D02*
X011051Y008251D01*
X011051Y008331D02*
X011271Y008331D01*
X010326Y008351D02*
X010326Y007851D01*
X010106Y007851D01*
X010106Y008351D01*
X010326Y008351D01*
X010326Y007931D02*
X010106Y007931D01*
X010106Y008011D02*
X010326Y008011D01*
X010326Y008091D02*
X010106Y008091D01*
X010106Y008171D02*
X010326Y008171D01*
X010326Y008251D02*
X010106Y008251D01*
X010106Y008331D02*
X010326Y008331D01*
X010011Y008351D02*
X010011Y007851D01*
X009791Y007851D01*
X009791Y008351D01*
X010011Y008351D01*
X010011Y007931D02*
X009791Y007931D01*
X009791Y008011D02*
X010011Y008011D01*
X010011Y008091D02*
X009791Y008091D01*
X009791Y008171D02*
X010011Y008171D01*
X010011Y008251D02*
X009791Y008251D01*
X009791Y008331D02*
X010011Y008331D01*
X009696Y008351D02*
X009696Y007851D01*
X009476Y007851D01*
X009476Y008351D01*
X009696Y008351D01*
X009696Y007931D02*
X009476Y007931D01*
X009476Y008011D02*
X009696Y008011D01*
X009696Y008091D02*
X009476Y008091D01*
X009476Y008171D02*
X009696Y008171D01*
X009696Y008251D02*
X009476Y008251D01*
X009476Y008331D02*
X009696Y008331D01*
X009381Y008351D02*
X009381Y007851D01*
X009161Y007851D01*
X009161Y008351D01*
X009381Y008351D01*
X009381Y007931D02*
X009161Y007931D01*
X009161Y008011D02*
X009381Y008011D01*
X009381Y008091D02*
X009161Y008091D01*
X009161Y008171D02*
X009381Y008171D01*
X009381Y008251D02*
X009161Y008251D01*
X009161Y008331D02*
X009381Y008331D01*
X009066Y008351D02*
X009066Y007851D01*
X008846Y007851D01*
X008846Y008351D01*
X009066Y008351D01*
X009066Y007931D02*
X008846Y007931D01*
X008846Y008011D02*
X009066Y008011D01*
X009066Y008091D02*
X008846Y008091D01*
X008846Y008171D02*
X009066Y008171D01*
X009066Y008251D02*
X008846Y008251D01*
X008846Y008331D02*
X009066Y008331D01*
X008618Y007624D02*
X008618Y007404D01*
X008118Y007404D01*
X008118Y007624D01*
X008618Y007624D01*
X008618Y007484D02*
X008118Y007484D01*
X008118Y007564D02*
X008618Y007564D01*
X008618Y007309D02*
X008618Y007089D01*
X008118Y007089D01*
X008118Y007309D01*
X008618Y007309D01*
X008618Y007169D02*
X008118Y007169D01*
X008118Y007249D02*
X008618Y007249D01*
X008618Y006994D02*
X008618Y006774D01*
X008118Y006774D01*
X008118Y006994D01*
X008618Y006994D01*
X008618Y006854D02*
X008118Y006854D01*
X008118Y006934D02*
X008618Y006934D01*
X008618Y006679D02*
X008618Y006459D01*
X008118Y006459D01*
X008118Y006679D01*
X008618Y006679D01*
X008618Y006539D02*
X008118Y006539D01*
X008118Y006619D02*
X008618Y006619D01*
X008618Y006364D02*
X008618Y006144D01*
X008118Y006144D01*
X008118Y006364D01*
X008618Y006364D01*
X008618Y006224D02*
X008118Y006224D01*
X008118Y006304D02*
X008618Y006304D01*
X008618Y006049D02*
X008618Y005829D01*
X008118Y005829D01*
X008118Y006049D01*
X008618Y006049D01*
X008618Y005909D02*
X008118Y005909D01*
X008118Y005989D02*
X008618Y005989D01*
X008618Y005734D02*
X008618Y005514D01*
X008118Y005514D01*
X008118Y005734D01*
X008618Y005734D01*
X008618Y005594D02*
X008118Y005594D01*
X008118Y005674D02*
X008618Y005674D01*
X008618Y005419D02*
X008618Y005199D01*
X008118Y005199D01*
X008118Y005419D01*
X008618Y005419D01*
X008618Y005279D02*
X008118Y005279D01*
X008118Y005359D02*
X008618Y005359D01*
X009066Y004971D02*
X009066Y004471D01*
X008846Y004471D01*
X008846Y004971D01*
X009066Y004971D01*
X009066Y004551D02*
X008846Y004551D01*
X008846Y004631D02*
X009066Y004631D01*
X009066Y004711D02*
X008846Y004711D01*
X008846Y004791D02*
X009066Y004791D01*
X009066Y004871D02*
X008846Y004871D01*
X008846Y004951D02*
X009066Y004951D01*
X009381Y004971D02*
X009381Y004471D01*
X009161Y004471D01*
X009161Y004971D01*
X009381Y004971D01*
X009381Y004551D02*
X009161Y004551D01*
X009161Y004631D02*
X009381Y004631D01*
X009381Y004711D02*
X009161Y004711D01*
X009161Y004791D02*
X009381Y004791D01*
X009381Y004871D02*
X009161Y004871D01*
X009161Y004951D02*
X009381Y004951D01*
X009696Y004971D02*
X009696Y004471D01*
X009476Y004471D01*
X009476Y004971D01*
X009696Y004971D01*
X009696Y004551D02*
X009476Y004551D01*
X009476Y004631D02*
X009696Y004631D01*
X009696Y004711D02*
X009476Y004711D01*
X009476Y004791D02*
X009696Y004791D01*
X009696Y004871D02*
X009476Y004871D01*
X009476Y004951D02*
X009696Y004951D01*
X010011Y004971D02*
X010011Y004471D01*
X009791Y004471D01*
X009791Y004971D01*
X010011Y004971D01*
X010011Y004551D02*
X009791Y004551D01*
X009791Y004631D02*
X010011Y004631D01*
X010011Y004711D02*
X009791Y004711D01*
X009791Y004791D02*
X010011Y004791D01*
X010011Y004871D02*
X009791Y004871D01*
X009791Y004951D02*
X010011Y004951D01*
X010326Y004971D02*
X010326Y004471D01*
X010106Y004471D01*
X010106Y004971D01*
X010326Y004971D01*
X010326Y004551D02*
X010106Y004551D01*
X010106Y004631D02*
X010326Y004631D01*
X010326Y004711D02*
X010106Y004711D01*
X010106Y004791D02*
X010326Y004791D01*
X010326Y004871D02*
X010106Y004871D01*
X010106Y004951D02*
X010326Y004951D01*
X010641Y004971D02*
X010641Y004471D01*
X010421Y004471D01*
X010421Y004971D01*
X010641Y004971D01*
X010641Y004551D02*
X010421Y004551D01*
X010421Y004631D02*
X010641Y004631D01*
X010641Y004711D02*
X010421Y004711D01*
X010421Y004791D02*
X010641Y004791D01*
X010641Y004871D02*
X010421Y004871D01*
X010421Y004951D02*
X010641Y004951D01*
X010956Y004971D02*
X010956Y004471D01*
X010736Y004471D01*
X010736Y004971D01*
X010956Y004971D01*
X010956Y004551D02*
X010736Y004551D01*
X010736Y004631D02*
X010956Y004631D01*
X010956Y004711D02*
X010736Y004711D01*
X010736Y004791D02*
X010956Y004791D01*
X010956Y004871D02*
X010736Y004871D01*
X010736Y004951D02*
X010956Y004951D01*
X011271Y004971D02*
X011271Y004471D01*
X011051Y004471D01*
X011051Y004971D01*
X011271Y004971D01*
X011271Y004551D02*
X011051Y004551D01*
X011051Y004631D02*
X011271Y004631D01*
X011271Y004711D02*
X011051Y004711D01*
X011051Y004791D02*
X011271Y004791D01*
X011271Y004871D02*
X011051Y004871D01*
X011051Y004951D02*
X011271Y004951D01*
X011998Y005199D02*
X011998Y005419D01*
X011998Y005199D02*
X011498Y005199D01*
X011498Y005419D01*
X011998Y005419D01*
X011998Y005279D02*
X011498Y005279D01*
X011498Y005359D02*
X011998Y005359D01*
X011998Y005514D02*
X011998Y005734D01*
X011998Y005514D02*
X011498Y005514D01*
X011498Y005734D01*
X011998Y005734D01*
X011998Y005594D02*
X011498Y005594D01*
X011498Y005674D02*
X011998Y005674D01*
X011998Y005829D02*
X011998Y006049D01*
X011998Y005829D02*
X011498Y005829D01*
X011498Y006049D01*
X011998Y006049D01*
X011998Y005909D02*
X011498Y005909D01*
X011498Y005989D02*
X011998Y005989D01*
X011998Y006144D02*
X011998Y006364D01*
X011998Y006144D02*
X011498Y006144D01*
X011498Y006364D01*
X011998Y006364D01*
X011998Y006224D02*
X011498Y006224D01*
X011498Y006304D02*
X011998Y006304D01*
X011998Y006459D02*
X011998Y006679D01*
X011998Y006459D02*
X011498Y006459D01*
X011498Y006679D01*
X011998Y006679D01*
X011998Y006539D02*
X011498Y006539D01*
X011498Y006619D02*
X011998Y006619D01*
X011998Y006774D02*
X011998Y006994D01*
X011998Y006774D02*
X011498Y006774D01*
X011498Y006994D01*
X011998Y006994D01*
X011998Y006854D02*
X011498Y006854D01*
X011498Y006934D02*
X011998Y006934D01*
X011998Y007089D02*
X011998Y007309D01*
X011998Y007089D02*
X011498Y007089D01*
X011498Y007309D01*
X011998Y007309D01*
X011998Y007169D02*
X011498Y007169D01*
X011498Y007249D02*
X011998Y007249D01*
X011998Y007404D02*
X011998Y007624D01*
X011998Y007404D02*
X011498Y007404D01*
X011498Y007624D01*
X011998Y007624D01*
X011998Y007484D02*
X011498Y007484D01*
X011498Y007564D02*
X011998Y007564D01*
X001743Y011506D02*
X001743Y011966D01*
X002373Y011966D01*
X002373Y011506D01*
X001743Y011506D01*
X001743Y011586D02*
X002373Y011586D01*
X002373Y011666D02*
X001743Y011666D01*
X001743Y011746D02*
X002373Y011746D01*
X002373Y011826D02*
X001743Y011826D01*
X001743Y011906D02*
X002373Y011906D01*
X001743Y012106D02*
X001743Y012566D01*
X002373Y012566D01*
X002373Y012106D01*
X001743Y012106D01*
X001743Y012186D02*
X002373Y012186D01*
X002373Y012266D02*
X001743Y012266D01*
X001743Y012346D02*
X002373Y012346D01*
X002373Y012426D02*
X001743Y012426D01*
X001743Y012506D02*
X002373Y012506D01*
D12*
X002433Y001661D03*
X003433Y001661D03*
X004433Y001661D03*
X005433Y001661D03*
X006433Y001661D03*
X007433Y001661D03*
X008433Y001661D03*
X009433Y001661D03*
X010433Y001661D03*
X011433Y001661D03*
X012433Y001661D03*
X013433Y001661D03*
X014433Y001661D03*
X015433Y001661D03*
X016433Y001661D03*
X017433Y001661D03*
X017433Y002661D03*
X016433Y002661D03*
X015433Y002661D03*
X014433Y002661D03*
X013433Y002661D03*
X012433Y002661D03*
X011433Y002661D03*
X010433Y002661D03*
X009433Y002661D03*
X008433Y002661D03*
X007433Y002661D03*
X006433Y002661D03*
X005433Y002661D03*
X004433Y002661D03*
X003433Y002661D03*
X002433Y002661D03*
D13*
X011183Y009411D03*
X012183Y009411D03*
X013183Y009411D03*
X012683Y010411D03*
X011683Y010411D03*
X013683Y010411D03*
D14*
X014473Y011363D02*
X014473Y011771D01*
X014893Y011771D01*
X014893Y011363D01*
X014473Y011363D01*
X014473Y011446D02*
X014893Y011446D01*
X014893Y011529D02*
X014473Y011529D01*
X014473Y011612D02*
X014893Y011612D01*
X014893Y011695D02*
X014473Y011695D01*
X014473Y012052D02*
X014473Y012460D01*
X014893Y012460D01*
X014893Y012052D01*
X014473Y012052D01*
X014473Y012135D02*
X014893Y012135D01*
X014893Y012218D02*
X014473Y012218D01*
X014473Y012301D02*
X014893Y012301D01*
X014893Y012384D02*
X014473Y012384D01*
X018518Y012460D02*
X018518Y012052D01*
X018098Y012052D01*
X018098Y012460D01*
X018518Y012460D01*
X018518Y012135D02*
X018098Y012135D01*
X018098Y012218D02*
X018518Y012218D01*
X018518Y012301D02*
X018098Y012301D01*
X018098Y012384D02*
X018518Y012384D01*
X018518Y011771D02*
X018518Y011363D01*
X018098Y011363D01*
X018098Y011771D01*
X018518Y011771D01*
X018518Y011446D02*
X018098Y011446D01*
X018098Y011529D02*
X018518Y011529D01*
X018518Y011612D02*
X018098Y011612D01*
X018098Y011695D02*
X018518Y011695D01*
X009982Y009371D02*
X009574Y009371D01*
X009982Y009371D02*
X009982Y008951D01*
X009574Y008951D01*
X009574Y009371D01*
X009574Y009034D02*
X009982Y009034D01*
X009982Y009117D02*
X009574Y009117D01*
X009574Y009200D02*
X009982Y009200D01*
X009982Y009283D02*
X009574Y009283D01*
X009574Y009366D02*
X009982Y009366D01*
X009293Y009371D02*
X008885Y009371D01*
X009293Y009371D02*
X009293Y008951D01*
X008885Y008951D01*
X008885Y009371D01*
X008885Y009034D02*
X009293Y009034D01*
X009293Y009117D02*
X008885Y009117D01*
X008885Y009200D02*
X009293Y009200D01*
X009293Y009283D02*
X008885Y009283D01*
X008885Y009366D02*
X009293Y009366D01*
X007357Y010996D02*
X006949Y010996D01*
X007357Y010996D02*
X007357Y010576D01*
X006949Y010576D01*
X006949Y010996D01*
X006949Y010659D02*
X007357Y010659D01*
X007357Y010742D02*
X006949Y010742D01*
X006949Y010825D02*
X007357Y010825D01*
X007357Y010908D02*
X006949Y010908D01*
X006949Y010991D02*
X007357Y010991D01*
X006668Y010996D02*
X006260Y010996D01*
X006668Y010996D02*
X006668Y010576D01*
X006260Y010576D01*
X006260Y010996D01*
X006260Y010659D02*
X006668Y010659D01*
X006668Y010742D02*
X006260Y010742D01*
X006260Y010825D02*
X006668Y010825D01*
X006668Y010908D02*
X006260Y010908D01*
X006260Y010991D02*
X006668Y010991D01*
X004482Y011246D02*
X004074Y011246D01*
X004482Y011246D02*
X004482Y010826D01*
X004074Y010826D01*
X004074Y011246D01*
X004074Y010909D02*
X004482Y010909D01*
X004482Y010992D02*
X004074Y010992D01*
X004074Y011075D02*
X004482Y011075D01*
X004482Y011158D02*
X004074Y011158D01*
X004074Y011241D02*
X004482Y011241D01*
X003793Y011246D02*
X003385Y011246D01*
X003793Y011246D02*
X003793Y010826D01*
X003385Y010826D01*
X003385Y011246D01*
X003385Y010909D02*
X003793Y010909D01*
X003793Y010992D02*
X003385Y010992D01*
X003385Y011075D02*
X003793Y011075D01*
X003793Y011158D02*
X003385Y011158D01*
X003385Y011241D02*
X003793Y011241D01*
X003793Y012826D02*
X003385Y012826D01*
X003385Y013246D01*
X003793Y013246D01*
X003793Y012826D01*
X003793Y012909D02*
X003385Y012909D01*
X003385Y012992D02*
X003793Y012992D01*
X003793Y013075D02*
X003385Y013075D01*
X003385Y013158D02*
X003793Y013158D01*
X003793Y013241D02*
X003385Y013241D01*
X003385Y013576D02*
X003793Y013576D01*
X003385Y013576D02*
X003385Y013996D01*
X003793Y013996D01*
X003793Y013576D01*
X003793Y013659D02*
X003385Y013659D01*
X003385Y013742D02*
X003793Y013742D01*
X003793Y013825D02*
X003385Y013825D01*
X003385Y013908D02*
X003793Y013908D01*
X003793Y013991D02*
X003385Y013991D01*
X004074Y013576D02*
X004482Y013576D01*
X004074Y013576D02*
X004074Y013996D01*
X004482Y013996D01*
X004482Y013576D01*
X004482Y013659D02*
X004074Y013659D01*
X004074Y013742D02*
X004482Y013742D01*
X004482Y013825D02*
X004074Y013825D01*
X004074Y013908D02*
X004482Y013908D01*
X004482Y013991D02*
X004074Y013991D01*
X004074Y012826D02*
X004482Y012826D01*
X004074Y012826D02*
X004074Y013246D01*
X004482Y013246D01*
X004482Y012826D01*
X004482Y012909D02*
X004074Y012909D01*
X004074Y012992D02*
X004482Y012992D01*
X004482Y013075D02*
X004074Y013075D01*
X004074Y013158D02*
X004482Y013158D01*
X004482Y013241D02*
X004074Y013241D01*
X001893Y009335D02*
X001893Y008927D01*
X001473Y008927D01*
X001473Y009335D01*
X001893Y009335D01*
X001893Y009010D02*
X001473Y009010D01*
X001473Y009093D02*
X001893Y009093D01*
X001893Y009176D02*
X001473Y009176D01*
X001473Y009259D02*
X001893Y009259D01*
X001893Y008646D02*
X001893Y008238D01*
X001473Y008238D01*
X001473Y008646D01*
X001893Y008646D01*
X001893Y008321D02*
X001473Y008321D01*
X001473Y008404D02*
X001893Y008404D01*
X001893Y008487D02*
X001473Y008487D01*
X001473Y008570D02*
X001893Y008570D01*
X011635Y003871D02*
X012043Y003871D01*
X012043Y003451D01*
X011635Y003451D01*
X011635Y003871D01*
X011635Y003534D02*
X012043Y003534D01*
X012043Y003617D02*
X011635Y003617D01*
X011635Y003700D02*
X012043Y003700D01*
X012043Y003783D02*
X011635Y003783D01*
X011635Y003866D02*
X012043Y003866D01*
X012324Y003871D02*
X012732Y003871D01*
X012732Y003451D01*
X012324Y003451D01*
X012324Y003871D01*
X012324Y003534D02*
X012732Y003534D01*
X012732Y003617D02*
X012324Y003617D01*
X012324Y003700D02*
X012732Y003700D01*
X012732Y003783D02*
X012324Y003783D01*
X012324Y003866D02*
X012732Y003866D01*
D15*
X008352Y009196D02*
X008352Y009706D01*
X008352Y009196D02*
X007764Y009196D01*
X007764Y009706D01*
X008352Y009706D01*
X008352Y009278D02*
X007764Y009278D01*
X007764Y009360D02*
X008352Y009360D01*
X008352Y009442D02*
X007764Y009442D01*
X007764Y009524D02*
X008352Y009524D01*
X008352Y009606D02*
X007764Y009606D01*
X007764Y009688D02*
X008352Y009688D01*
X008352Y009866D02*
X008352Y010376D01*
X008352Y009866D02*
X007764Y009866D01*
X007764Y010376D01*
X008352Y010376D01*
X008352Y009948D02*
X007764Y009948D01*
X007764Y010030D02*
X008352Y010030D01*
X008352Y010112D02*
X007764Y010112D01*
X007764Y010194D02*
X008352Y010194D01*
X008352Y010276D02*
X007764Y010276D01*
X007764Y010358D02*
X008352Y010358D01*
X004852Y009626D02*
X004852Y009116D01*
X004264Y009116D01*
X004264Y009626D01*
X004852Y009626D01*
X004852Y009198D02*
X004264Y009198D01*
X004264Y009280D02*
X004852Y009280D01*
X004852Y009362D02*
X004264Y009362D01*
X004264Y009444D02*
X004852Y009444D01*
X004852Y009526D02*
X004264Y009526D01*
X004264Y009608D02*
X004852Y009608D01*
X004852Y008956D02*
X004852Y008446D01*
X004264Y008446D01*
X004264Y008956D01*
X004852Y008956D01*
X004852Y008528D02*
X004264Y008528D01*
X004264Y008610D02*
X004852Y008610D01*
X004852Y008692D02*
X004264Y008692D01*
X004264Y008774D02*
X004852Y008774D01*
X004852Y008856D02*
X004264Y008856D01*
X004264Y008938D02*
X004852Y008938D01*
X015615Y010176D02*
X016399Y010176D01*
X015615Y010176D02*
X015615Y010646D01*
X016399Y010646D01*
X016399Y010176D01*
X016399Y010258D02*
X015615Y010258D01*
X015615Y010340D02*
X016399Y010340D01*
X016399Y010422D02*
X015615Y010422D01*
X015615Y010504D02*
X016399Y010504D01*
X016399Y010586D02*
X015615Y010586D01*
X016717Y010176D02*
X017501Y010176D01*
X016717Y010176D02*
X016717Y010646D01*
X017501Y010646D01*
X017501Y010176D01*
X017501Y010258D02*
X016717Y010258D01*
X016717Y010340D02*
X017501Y010340D01*
X017501Y010422D02*
X016717Y010422D01*
X016717Y010504D02*
X017501Y010504D01*
X017501Y010586D02*
X016717Y010586D01*
D16*
X002058Y012036D03*
D17*
X015373Y011112D02*
X015963Y011112D01*
X015373Y011112D02*
X015373Y011902D01*
X015963Y011902D01*
X015963Y011112D01*
X015963Y011191D02*
X015373Y011191D01*
X015373Y011270D02*
X015963Y011270D01*
X015963Y011349D02*
X015373Y011349D01*
X015373Y011428D02*
X015963Y011428D01*
X015963Y011507D02*
X015373Y011507D01*
X015373Y011586D02*
X015963Y011586D01*
X015963Y011665D02*
X015373Y011665D01*
X015373Y011744D02*
X015963Y011744D01*
X015963Y011823D02*
X015373Y011823D01*
X015373Y011902D02*
X015963Y011902D01*
X016273Y011112D02*
X016863Y011112D01*
X016273Y011112D02*
X016273Y011902D01*
X016863Y011902D01*
X016863Y011112D01*
X016863Y011191D02*
X016273Y011191D01*
X016273Y011270D02*
X016863Y011270D01*
X016863Y011349D02*
X016273Y011349D01*
X016273Y011428D02*
X016863Y011428D01*
X016863Y011507D02*
X016273Y011507D01*
X016273Y011586D02*
X016863Y011586D01*
X016863Y011665D02*
X016273Y011665D01*
X016273Y011744D02*
X016863Y011744D01*
X016863Y011823D02*
X016273Y011823D01*
X016273Y011902D02*
X016863Y011902D01*
X017173Y011112D02*
X017763Y011112D01*
X017173Y011112D02*
X017173Y011902D01*
X017763Y011902D01*
X017763Y011112D01*
X017763Y011191D02*
X017173Y011191D01*
X017173Y011270D02*
X017763Y011270D01*
X017763Y011349D02*
X017173Y011349D01*
X017173Y011428D02*
X017763Y011428D01*
X017763Y011507D02*
X017173Y011507D01*
X017173Y011586D02*
X017763Y011586D01*
X017763Y011665D02*
X017173Y011665D01*
X017173Y011744D02*
X017763Y011744D01*
X017763Y011823D02*
X017173Y011823D01*
X017173Y011902D02*
X017763Y011902D01*
D18*
X017305Y013595D02*
X015811Y013595D01*
X015811Y014379D01*
X017305Y014379D01*
X017305Y013595D01*
X017305Y013681D02*
X015811Y013681D01*
X015811Y013767D02*
X017305Y013767D01*
X017305Y013853D02*
X015811Y013853D01*
X015811Y013939D02*
X017305Y013939D01*
X017305Y014025D02*
X015811Y014025D01*
X015811Y014111D02*
X017305Y014111D01*
X017305Y014197D02*
X015811Y014197D01*
X015811Y014283D02*
X017305Y014283D01*
X017305Y014369D02*
X015811Y014369D01*
D19*
X016806Y005117D03*
X003027Y005117D03*
D20*
X005933Y012239D02*
X005933Y012833D01*
X006933Y012833D02*
X006933Y012239D01*
X008183Y012239D02*
X008183Y012833D01*
X009183Y012833D02*
X009183Y012239D01*
X010433Y012239D02*
X010433Y012833D01*
X011433Y012833D02*
X011433Y012239D01*
X012683Y012239D02*
X012683Y012833D01*
X013683Y012833D02*
X013683Y012239D01*
D21*
X016324Y009456D02*
X016324Y008866D01*
X016324Y009456D02*
X016914Y009456D01*
X016914Y008866D01*
X016324Y008866D01*
X016324Y008945D02*
X016914Y008945D01*
X016914Y009024D02*
X016324Y009024D01*
X016324Y009103D02*
X016914Y009103D01*
X016914Y009182D02*
X016324Y009182D01*
X016324Y009261D02*
X016914Y009261D01*
X016914Y009340D02*
X016324Y009340D01*
X016324Y009419D02*
X016914Y009419D01*
X017702Y009456D02*
X017702Y008866D01*
X017702Y009456D02*
X018292Y009456D01*
X018292Y008866D01*
X017702Y008866D01*
X017702Y008945D02*
X018292Y008945D01*
X018292Y009024D02*
X017702Y009024D01*
X017702Y009103D02*
X018292Y009103D01*
X018292Y009182D02*
X017702Y009182D01*
X017702Y009261D02*
X018292Y009261D01*
X018292Y009340D02*
X017702Y009340D01*
X017702Y009419D02*
X018292Y009419D01*
X017702Y008581D02*
X017702Y007991D01*
X017702Y008581D02*
X018292Y008581D01*
X018292Y007991D01*
X017702Y007991D01*
X017702Y008070D02*
X018292Y008070D01*
X018292Y008149D02*
X017702Y008149D01*
X017702Y008228D02*
X018292Y008228D01*
X018292Y008307D02*
X017702Y008307D01*
X017702Y008386D02*
X018292Y008386D01*
X018292Y008465D02*
X017702Y008465D01*
X017702Y008544D02*
X018292Y008544D01*
X017702Y007706D02*
X017702Y007116D01*
X017702Y007706D02*
X018292Y007706D01*
X018292Y007116D01*
X017702Y007116D01*
X017702Y007195D02*
X018292Y007195D01*
X018292Y007274D02*
X017702Y007274D01*
X017702Y007353D02*
X018292Y007353D01*
X018292Y007432D02*
X017702Y007432D01*
X017702Y007511D02*
X018292Y007511D01*
X018292Y007590D02*
X017702Y007590D01*
X017702Y007669D02*
X018292Y007669D01*
X016324Y007706D02*
X016324Y007116D01*
X016324Y007706D02*
X016914Y007706D01*
X016914Y007116D01*
X016324Y007116D01*
X016324Y007195D02*
X016914Y007195D01*
X016914Y007274D02*
X016324Y007274D01*
X016324Y007353D02*
X016914Y007353D01*
X016914Y007432D02*
X016324Y007432D01*
X016324Y007511D02*
X016914Y007511D01*
X016914Y007590D02*
X016324Y007590D01*
X016324Y007669D02*
X016914Y007669D01*
X016324Y007991D02*
X016324Y008581D01*
X016914Y008581D01*
X016914Y007991D01*
X016324Y007991D01*
X016324Y008070D02*
X016914Y008070D01*
X016914Y008149D02*
X016324Y008149D01*
X016324Y008228D02*
X016914Y008228D01*
X016914Y008307D02*
X016324Y008307D01*
X016324Y008386D02*
X016914Y008386D01*
X016914Y008465D02*
X016324Y008465D01*
X016324Y008544D02*
X016914Y008544D01*
D22*
X007379Y010369D02*
X006985Y010369D01*
X007379Y010369D02*
X007379Y009819D01*
X006985Y009819D01*
X006985Y010369D01*
X006985Y009899D02*
X007379Y009899D01*
X007379Y009979D02*
X006985Y009979D01*
X006985Y010059D02*
X007379Y010059D01*
X007379Y010139D02*
X006985Y010139D01*
X006985Y010219D02*
X007379Y010219D01*
X007379Y010299D02*
X006985Y010299D01*
X006631Y010369D02*
X006237Y010369D01*
X006631Y010369D02*
X006631Y009819D01*
X006237Y009819D01*
X006237Y010369D01*
X006237Y009899D02*
X006631Y009899D01*
X006631Y009979D02*
X006237Y009979D01*
X006237Y010059D02*
X006631Y010059D01*
X006631Y010139D02*
X006237Y010139D01*
X006237Y010219D02*
X006631Y010219D01*
X006631Y010299D02*
X006237Y010299D01*
X006611Y009503D02*
X007005Y009503D01*
X007005Y008953D01*
X006611Y008953D01*
X006611Y009503D01*
X006611Y009033D02*
X007005Y009033D01*
X007005Y009113D02*
X006611Y009113D01*
X006611Y009193D02*
X007005Y009193D01*
X007005Y009273D02*
X006611Y009273D01*
X006611Y009353D02*
X007005Y009353D01*
X007005Y009433D02*
X006611Y009433D01*
D23*
X004642Y011579D02*
X004642Y011705D01*
X004996Y011705D01*
X004996Y011579D01*
X004642Y011579D01*
X004642Y011658D02*
X004996Y011658D01*
X004642Y011776D02*
X004642Y011902D01*
X004996Y011902D01*
X004996Y011776D01*
X004642Y011776D01*
X004642Y011855D02*
X004996Y011855D01*
X004642Y011973D02*
X004642Y012099D01*
X004996Y012099D01*
X004996Y011973D01*
X004642Y011973D01*
X004642Y012052D02*
X004996Y012052D01*
X004642Y012170D02*
X004642Y012296D01*
X004996Y012296D01*
X004996Y012170D01*
X004642Y012170D01*
X004642Y012249D02*
X004996Y012249D01*
X004642Y012367D02*
X004642Y012493D01*
X004996Y012493D01*
X004996Y012367D01*
X004642Y012367D01*
X004642Y012446D02*
X004996Y012446D01*
X002870Y012493D02*
X002870Y012367D01*
X002870Y012493D02*
X003224Y012493D01*
X003224Y012367D01*
X002870Y012367D01*
X002870Y012446D02*
X003224Y012446D01*
X002870Y012296D02*
X002870Y012170D01*
X002870Y012296D02*
X003224Y012296D01*
X003224Y012170D01*
X002870Y012170D01*
X002870Y012249D02*
X003224Y012249D01*
X002870Y012099D02*
X002870Y011973D01*
X002870Y012099D02*
X003224Y012099D01*
X003224Y011973D01*
X002870Y011973D01*
X002870Y012052D02*
X003224Y012052D01*
X002870Y011902D02*
X002870Y011776D01*
X002870Y011902D02*
X003224Y011902D01*
X003224Y011776D01*
X002870Y011776D01*
X002870Y011855D02*
X003224Y011855D01*
X002870Y011705D02*
X002870Y011579D01*
X002870Y011705D02*
X003224Y011705D01*
X003224Y011579D01*
X002870Y011579D01*
X002870Y011658D02*
X003224Y011658D01*
D24*
X003188Y010376D02*
X003428Y010376D01*
X003428Y009506D01*
X003188Y009506D01*
X003188Y010376D01*
X003188Y009585D02*
X003428Y009585D01*
X003428Y009664D02*
X003188Y009664D01*
X003188Y009743D02*
X003428Y009743D01*
X003428Y009822D02*
X003188Y009822D01*
X003188Y009901D02*
X003428Y009901D01*
X003428Y009980D02*
X003188Y009980D01*
X003188Y010059D02*
X003428Y010059D01*
X003428Y010138D02*
X003188Y010138D01*
X003188Y010217D02*
X003428Y010217D01*
X003428Y010296D02*
X003188Y010296D01*
X003188Y010375D02*
X003428Y010375D01*
X003688Y010376D02*
X003928Y010376D01*
X003928Y009506D01*
X003688Y009506D01*
X003688Y010376D01*
X003688Y009585D02*
X003928Y009585D01*
X003928Y009664D02*
X003688Y009664D01*
X003688Y009743D02*
X003928Y009743D01*
X003928Y009822D02*
X003688Y009822D01*
X003688Y009901D02*
X003928Y009901D01*
X003928Y009980D02*
X003688Y009980D01*
X003688Y010059D02*
X003928Y010059D01*
X003928Y010138D02*
X003688Y010138D01*
X003688Y010217D02*
X003928Y010217D01*
X003928Y010296D02*
X003688Y010296D01*
X003688Y010375D02*
X003928Y010375D01*
X002928Y010376D02*
X002688Y010376D01*
X002928Y010376D02*
X002928Y009506D01*
X002688Y009506D01*
X002688Y010376D01*
X002688Y009585D02*
X002928Y009585D01*
X002928Y009664D02*
X002688Y009664D01*
X002688Y009743D02*
X002928Y009743D01*
X002928Y009822D02*
X002688Y009822D01*
X002688Y009901D02*
X002928Y009901D01*
X002928Y009980D02*
X002688Y009980D01*
X002688Y010059D02*
X002928Y010059D01*
X002928Y010138D02*
X002688Y010138D01*
X002688Y010217D02*
X002928Y010217D01*
X002928Y010296D02*
X002688Y010296D01*
X002688Y010375D02*
X002928Y010375D01*
X002428Y010376D02*
X002188Y010376D01*
X002428Y010376D02*
X002428Y009506D01*
X002188Y009506D01*
X002188Y010376D01*
X002188Y009585D02*
X002428Y009585D01*
X002428Y009664D02*
X002188Y009664D01*
X002188Y009743D02*
X002428Y009743D01*
X002428Y009822D02*
X002188Y009822D01*
X002188Y009901D02*
X002428Y009901D01*
X002428Y009980D02*
X002188Y009980D01*
X002188Y010059D02*
X002428Y010059D01*
X002428Y010138D02*
X002188Y010138D01*
X002188Y010217D02*
X002428Y010217D01*
X002428Y010296D02*
X002188Y010296D01*
X002188Y010375D02*
X002428Y010375D01*
X002428Y008316D02*
X002188Y008316D01*
X002428Y008316D02*
X002428Y007446D01*
X002188Y007446D01*
X002188Y008316D01*
X002188Y007525D02*
X002428Y007525D01*
X002428Y007604D02*
X002188Y007604D01*
X002188Y007683D02*
X002428Y007683D01*
X002428Y007762D02*
X002188Y007762D01*
X002188Y007841D02*
X002428Y007841D01*
X002428Y007920D02*
X002188Y007920D01*
X002188Y007999D02*
X002428Y007999D01*
X002428Y008078D02*
X002188Y008078D01*
X002188Y008157D02*
X002428Y008157D01*
X002428Y008236D02*
X002188Y008236D01*
X002188Y008315D02*
X002428Y008315D01*
X002688Y008316D02*
X002928Y008316D01*
X002928Y007446D01*
X002688Y007446D01*
X002688Y008316D01*
X002688Y007525D02*
X002928Y007525D01*
X002928Y007604D02*
X002688Y007604D01*
X002688Y007683D02*
X002928Y007683D01*
X002928Y007762D02*
X002688Y007762D01*
X002688Y007841D02*
X002928Y007841D01*
X002928Y007920D02*
X002688Y007920D01*
X002688Y007999D02*
X002928Y007999D01*
X002928Y008078D02*
X002688Y008078D01*
X002688Y008157D02*
X002928Y008157D01*
X002928Y008236D02*
X002688Y008236D01*
X002688Y008315D02*
X002928Y008315D01*
X003188Y008316D02*
X003428Y008316D01*
X003428Y007446D01*
X003188Y007446D01*
X003188Y008316D01*
X003188Y007525D02*
X003428Y007525D01*
X003428Y007604D02*
X003188Y007604D01*
X003188Y007683D02*
X003428Y007683D01*
X003428Y007762D02*
X003188Y007762D01*
X003188Y007841D02*
X003428Y007841D01*
X003428Y007920D02*
X003188Y007920D01*
X003188Y007999D02*
X003428Y007999D01*
X003428Y008078D02*
X003188Y008078D01*
X003188Y008157D02*
X003428Y008157D01*
X003428Y008236D02*
X003188Y008236D01*
X003188Y008315D02*
X003428Y008315D01*
X003688Y008316D02*
X003928Y008316D01*
X003928Y007446D01*
X003688Y007446D01*
X003688Y008316D01*
X003688Y007525D02*
X003928Y007525D01*
X003928Y007604D02*
X003688Y007604D01*
X003688Y007683D02*
X003928Y007683D01*
X003928Y007762D02*
X003688Y007762D01*
X003688Y007841D02*
X003928Y007841D01*
X003928Y007920D02*
X003688Y007920D01*
X003688Y007999D02*
X003928Y007999D01*
X003928Y008078D02*
X003688Y008078D01*
X003688Y008157D02*
X003928Y008157D01*
X003928Y008236D02*
X003688Y008236D01*
X003688Y008315D02*
X003928Y008315D01*
D25*
X006211Y006962D02*
X006525Y006962D01*
X006525Y006806D01*
X006211Y006806D01*
X006211Y006962D01*
X006211Y006886D02*
X006525Y006886D01*
X006525Y006647D02*
X006211Y006647D01*
X006525Y006647D02*
X006525Y006491D01*
X006211Y006491D01*
X006211Y006647D01*
X006211Y006571D02*
X006525Y006571D01*
X006525Y006332D02*
X006211Y006332D01*
X006525Y006332D02*
X006525Y006176D01*
X006211Y006176D01*
X006211Y006332D01*
X006211Y006256D02*
X006525Y006256D01*
X006525Y006017D02*
X006211Y006017D01*
X006525Y006017D02*
X006525Y005861D01*
X006211Y005861D01*
X006211Y006017D01*
X006211Y005941D02*
X006525Y005941D01*
X006841Y006017D02*
X007155Y006017D01*
X007155Y005861D01*
X006841Y005861D01*
X006841Y006017D01*
X006841Y005941D02*
X007155Y005941D01*
X007155Y006332D02*
X006841Y006332D01*
X007155Y006332D02*
X007155Y006176D01*
X006841Y006176D01*
X006841Y006332D01*
X006841Y006256D02*
X007155Y006256D01*
X007155Y006647D02*
X006841Y006647D01*
X007155Y006647D02*
X007155Y006491D01*
X006841Y006491D01*
X006841Y006647D01*
X006841Y006571D02*
X007155Y006571D01*
X007155Y006962D02*
X006841Y006962D01*
X007155Y006962D02*
X007155Y006806D01*
X006841Y006806D01*
X006841Y006962D01*
X006841Y006886D02*
X007155Y006886D01*
X014586Y007767D02*
X014900Y007767D01*
X014900Y007611D01*
X014586Y007611D01*
X014586Y007767D01*
X014586Y007691D02*
X014900Y007691D01*
X014900Y008082D02*
X014586Y008082D01*
X014900Y008082D02*
X014900Y007926D01*
X014586Y007926D01*
X014586Y008082D01*
X014586Y008006D02*
X014900Y008006D01*
X014900Y008397D02*
X014586Y008397D01*
X014900Y008397D02*
X014900Y008241D01*
X014586Y008241D01*
X014586Y008397D01*
X014586Y008321D02*
X014900Y008321D01*
X014900Y008712D02*
X014586Y008712D01*
X014900Y008712D02*
X014900Y008556D01*
X014586Y008556D01*
X014586Y008712D01*
X014586Y008636D02*
X014900Y008636D01*
X015216Y008712D02*
X015530Y008712D01*
X015530Y008556D01*
X015216Y008556D01*
X015216Y008712D01*
X015216Y008636D02*
X015530Y008636D01*
X015530Y008397D02*
X015216Y008397D01*
X015530Y008397D02*
X015530Y008241D01*
X015216Y008241D01*
X015216Y008397D01*
X015216Y008321D02*
X015530Y008321D01*
X015530Y008082D02*
X015216Y008082D01*
X015530Y008082D02*
X015530Y007926D01*
X015216Y007926D01*
X015216Y008082D01*
X015216Y008006D02*
X015530Y008006D01*
X015530Y007767D02*
X015216Y007767D01*
X015530Y007767D02*
X015530Y007611D01*
X015216Y007611D01*
X015216Y007767D01*
X015216Y007691D02*
X015530Y007691D01*
D26*
X007308Y004441D02*
X007308Y003881D01*
X006308Y003881D02*
X006308Y004441D01*
D27*
X006933Y005536D03*
X007558Y005036D03*
X007808Y005536D03*
X008933Y005911D03*
X009058Y006286D03*
X009558Y005411D03*
X010183Y005411D03*
X010808Y004161D03*
X012558Y005661D03*
X013383Y005936D03*
X014183Y007911D03*
X013808Y008286D03*
X015183Y010786D03*
X018058Y009786D03*
X018308Y012911D03*
X009933Y007536D03*
X007672Y006574D03*
X007357Y006889D03*
X007433Y009161D03*
X003933Y011911D03*
X003058Y011036D03*
X002308Y009161D03*
X002830Y007125D03*
X003499Y007125D03*
X002058Y013536D03*
X005058Y013786D03*
D28*
X005858Y010746D03*
M02*
