G75*
G70*
%OFA0B0*%
%FSLAX24Y24*%
%IPPOS*%
%LPD*%
%AMOC8*
5,1,8,0,0,1.08239X$1,22.5*
%
%ADD10OC8,0.0560*%
%ADD11C,0.0520*%
%ADD12C,0.0594*%
%ADD13C,0.0560*%
%ADD14C,0.0160*%
%ADD15C,0.0278*%
%ADD16C,0.0400*%
%ADD17C,0.0100*%
D10*
X002433Y001661D03*
X003433Y001661D03*
X004433Y001661D03*
X005433Y001661D03*
X006433Y001661D03*
X007433Y001661D03*
X008433Y001661D03*
X009433Y001661D03*
X010433Y001661D03*
X011433Y001661D03*
X012433Y001661D03*
X013433Y001661D03*
X014433Y001661D03*
X015433Y001661D03*
X016433Y001661D03*
X017433Y001661D03*
X017433Y002661D03*
X016433Y002661D03*
X015433Y002661D03*
X014433Y002661D03*
X013433Y002661D03*
X012433Y002661D03*
X011433Y002661D03*
X010433Y002661D03*
X009433Y002661D03*
X008433Y002661D03*
X007433Y002661D03*
X006433Y002661D03*
X005433Y002661D03*
X004433Y002661D03*
X003433Y002661D03*
X002433Y002661D03*
D11*
X011183Y009411D03*
X012183Y009411D03*
X013183Y009411D03*
X012683Y010411D03*
X011683Y010411D03*
X013683Y010411D03*
D12*
X013683Y012239D02*
X013683Y012833D01*
X012683Y012833D02*
X012683Y012239D01*
X011433Y012239D02*
X011433Y012833D01*
X010433Y012833D02*
X010433Y012239D01*
X009183Y012239D02*
X009183Y012833D01*
X008183Y012833D02*
X008183Y012239D01*
X006933Y012239D02*
X006933Y012833D01*
X005933Y012833D02*
X005933Y012239D01*
D13*
X006308Y004441D02*
X006308Y003881D01*
X007308Y003881D02*
X007308Y004441D01*
D14*
X001338Y001066D02*
X001338Y014286D01*
X018495Y014286D01*
X018495Y001066D01*
X001338Y001066D01*
X001338Y001103D02*
X018495Y001103D01*
X018495Y001262D02*
X017628Y001262D01*
X017607Y001241D02*
X017853Y001487D01*
X017853Y001835D01*
X017607Y002081D01*
X017259Y002081D01*
X017013Y001835D01*
X017013Y001487D01*
X017259Y001241D01*
X017607Y001241D01*
X017786Y001420D02*
X018495Y001420D01*
X018495Y001579D02*
X017853Y001579D01*
X017853Y001737D02*
X018495Y001737D01*
X018495Y001896D02*
X017792Y001896D01*
X017634Y002054D02*
X018495Y002054D01*
X018495Y002213D02*
X017636Y002213D01*
X017624Y002201D02*
X017443Y002201D01*
X017443Y002651D01*
X017423Y002651D01*
X016973Y002651D01*
X016973Y002471D01*
X017243Y002201D01*
X017423Y002201D01*
X017423Y002651D01*
X017423Y002671D01*
X016973Y002671D01*
X016973Y002852D01*
X017243Y003121D01*
X017423Y003121D01*
X017423Y002671D01*
X017443Y002671D01*
X017443Y003121D01*
X017624Y003121D01*
X017893Y002852D01*
X017893Y002671D01*
X017444Y002671D01*
X017444Y002651D01*
X017893Y002651D01*
X017893Y002471D01*
X017624Y002201D01*
X017443Y002213D02*
X017423Y002213D01*
X017423Y002372D02*
X017443Y002372D01*
X017443Y002530D02*
X017423Y002530D01*
X017423Y002689D02*
X017443Y002689D01*
X017443Y002847D02*
X017423Y002847D01*
X017423Y003006D02*
X017443Y003006D01*
X017739Y003006D02*
X018495Y003006D01*
X018495Y003164D02*
X007574Y003164D01*
X007623Y003115D02*
X007512Y003226D01*
X007277Y003461D01*
X007392Y003461D01*
X007546Y003525D01*
X007664Y003643D01*
X007728Y003798D01*
X007728Y003971D01*
X010604Y003971D01*
X010650Y003925D01*
X010753Y003882D01*
X010864Y003882D01*
X010966Y003925D01*
X011045Y004003D01*
X011087Y004106D01*
X011087Y004217D01*
X011045Y004319D01*
X010966Y004398D01*
X010864Y004440D01*
X010753Y004440D01*
X010650Y004398D01*
X010604Y004351D01*
X007728Y004351D01*
X007728Y004525D01*
X007664Y004679D01*
X007586Y004757D01*
X007614Y004757D01*
X007716Y004800D01*
X007795Y004878D01*
X007837Y004981D01*
X007837Y005092D01*
X007795Y005194D01*
X007748Y005241D01*
X007748Y005259D01*
X007753Y005257D01*
X007864Y005257D01*
X007966Y005300D01*
X008045Y005378D01*
X008087Y005481D01*
X008087Y005546D01*
X008496Y005955D01*
X008605Y005846D01*
X008696Y005755D01*
X008697Y005753D01*
X008775Y005675D01*
X008878Y005632D01*
X008989Y005632D01*
X009091Y005675D01*
X009170Y005753D01*
X009212Y005856D01*
X009212Y005967D01*
X009184Y006036D01*
X009216Y006050D01*
X009263Y006096D01*
X012230Y006096D01*
X012387Y006096D01*
X013262Y006971D01*
X013373Y007082D01*
X013373Y009057D01*
X013410Y009072D01*
X013522Y009185D01*
X013583Y009332D01*
X013583Y009491D01*
X013522Y009638D01*
X013410Y009750D01*
X013263Y009811D01*
X013104Y009811D01*
X012957Y009750D01*
X012844Y009638D01*
X012783Y009491D01*
X012783Y009332D01*
X012844Y009185D01*
X012957Y009072D01*
X012993Y009057D01*
X012993Y007240D01*
X012230Y006476D01*
X009263Y006476D01*
X009216Y006523D01*
X009114Y006565D01*
X009003Y006565D01*
X008900Y006523D01*
X008873Y006496D01*
X008873Y006582D01*
X009373Y007082D01*
X009373Y007240D01*
X009373Y011845D01*
X009431Y011869D01*
X009554Y011992D01*
X009620Y012152D01*
X009620Y012920D01*
X009554Y013080D01*
X009431Y013203D01*
X009373Y013227D01*
X009373Y013457D01*
X009373Y013615D01*
X009248Y013740D01*
X009137Y013851D01*
X005637Y013851D01*
X005480Y013851D01*
X005355Y013726D01*
X002263Y013726D01*
X002216Y013773D01*
X002114Y013815D01*
X002003Y013815D01*
X001900Y013773D01*
X001822Y013694D01*
X001779Y013592D01*
X001779Y013481D01*
X001822Y013378D01*
X001900Y013300D01*
X002003Y013257D01*
X002114Y013257D01*
X002216Y013300D01*
X002263Y013346D01*
X003975Y013346D01*
X003855Y013226D01*
X003855Y013226D01*
X003743Y013115D01*
X003743Y012116D01*
X003697Y012069D01*
X003654Y011967D01*
X003654Y011856D01*
X003697Y011753D01*
X003775Y011675D01*
X003878Y011632D01*
X003989Y011632D01*
X004091Y011675D01*
X004170Y011753D01*
X004212Y011856D01*
X004212Y011967D01*
X004170Y012069D01*
X004123Y012116D01*
X004123Y012957D01*
X004262Y013096D01*
X005480Y013096D01*
X005579Y013096D01*
X005563Y013080D01*
X005496Y012920D01*
X005496Y012152D01*
X005563Y011992D01*
X005686Y011869D01*
X005846Y011802D01*
X006020Y011802D01*
X006181Y011869D01*
X006304Y011992D01*
X006370Y012152D01*
X006370Y012920D01*
X006304Y013080D01*
X006181Y013203D01*
X006138Y013221D01*
X006729Y013221D01*
X006686Y013203D01*
X006563Y013080D01*
X006496Y012920D01*
X006496Y012152D01*
X006563Y011992D01*
X006686Y011869D01*
X006846Y011802D01*
X007020Y011802D01*
X007181Y011869D01*
X007304Y011992D01*
X007370Y012152D01*
X007370Y012920D01*
X007304Y013080D01*
X007181Y013203D01*
X007138Y013221D01*
X007979Y013221D01*
X007936Y013203D01*
X007813Y013080D01*
X007746Y012920D01*
X007746Y012152D01*
X007813Y011992D01*
X007936Y011869D01*
X007993Y011845D01*
X007993Y011115D01*
X007993Y010957D01*
X008368Y010582D01*
X008368Y007120D01*
X008123Y007365D01*
X008012Y007476D01*
X007762Y007476D01*
X007623Y007615D01*
X007623Y008956D01*
X007670Y009003D01*
X007712Y009106D01*
X007712Y009217D01*
X007670Y009319D01*
X007591Y009398D01*
X007489Y009440D01*
X007378Y009440D01*
X007275Y009398D01*
X007197Y009319D01*
X007154Y009217D01*
X007154Y009106D01*
X007197Y009003D01*
X007243Y008956D01*
X007243Y007457D01*
X007355Y007346D01*
X007605Y007096D01*
X007762Y007096D01*
X007855Y007096D01*
X007872Y007078D01*
X007752Y007078D01*
X007562Y007078D01*
X007516Y007125D01*
X007413Y007168D01*
X007302Y007168D01*
X007199Y007125D01*
X007153Y007078D01*
X004168Y007078D01*
X003932Y007315D01*
X003775Y007315D01*
X003704Y007315D01*
X003657Y007361D01*
X003555Y007404D01*
X003444Y007404D01*
X003341Y007361D01*
X003263Y007283D01*
X003220Y007180D01*
X003220Y007069D01*
X003259Y006975D01*
X003228Y006975D01*
X003109Y007103D01*
X003109Y007180D01*
X003066Y007283D01*
X002988Y007361D01*
X002885Y007404D01*
X002774Y007404D01*
X002672Y007361D01*
X002593Y007283D01*
X002551Y007180D01*
X002551Y007069D01*
X002593Y006967D01*
X002672Y006888D01*
X002774Y006846D01*
X002829Y006846D01*
X002897Y006773D01*
X002653Y006755D01*
X002187Y006572D01*
X001795Y006260D01*
X001795Y006259D01*
X001513Y005846D01*
X001513Y005846D01*
X001366Y005367D01*
X001366Y004866D01*
X001513Y004388D01*
X001795Y003974D01*
X001795Y003974D01*
X002187Y003662D01*
X002653Y003479D01*
X003152Y003442D01*
X003152Y003442D01*
X003640Y003553D01*
X003641Y003553D01*
X004074Y003803D01*
X004074Y003803D01*
X004415Y004170D01*
X004415Y004171D02*
X004632Y004622D01*
X004707Y005117D01*
X004632Y005612D01*
X004415Y006063D01*
X004415Y006063D01*
X004118Y006384D01*
X007468Y006384D01*
X007514Y006337D01*
X007568Y006315D01*
X007118Y005865D01*
X007118Y005707D01*
X007118Y005365D01*
X006730Y004976D01*
X006618Y004865D01*
X006618Y004725D01*
X006546Y004797D01*
X006392Y004861D01*
X006225Y004861D01*
X006070Y004797D01*
X005952Y004679D01*
X005888Y004525D01*
X005888Y003798D01*
X004066Y003798D01*
X004217Y003957D02*
X005888Y003957D01*
X005888Y004116D02*
X004364Y004116D01*
X004415Y004170D02*
X004415Y004171D01*
X004465Y004274D02*
X005888Y004274D01*
X005888Y004433D02*
X004541Y004433D01*
X004617Y004591D02*
X005916Y004591D01*
X006023Y004750D02*
X004651Y004750D01*
X004632Y004622D02*
X004632Y004622D01*
X004675Y004908D02*
X006662Y004908D01*
X006618Y004750D02*
X006594Y004750D01*
X006820Y005067D02*
X004699Y005067D01*
X004690Y005225D02*
X006979Y005225D01*
X007118Y005384D02*
X004666Y005384D01*
X004643Y005542D02*
X007118Y005542D01*
X007118Y005701D02*
X004589Y005701D01*
X004632Y005612D02*
X004632Y005612D01*
X004513Y005860D02*
X007118Y005860D01*
X007271Y006018D02*
X004437Y006018D01*
X004310Y006177D02*
X007430Y006177D01*
X007519Y006335D02*
X004162Y006335D01*
X004119Y007128D02*
X007206Y007128D01*
X007414Y007286D02*
X003961Y007286D01*
X003266Y007286D02*
X003063Y007286D01*
X003109Y007128D02*
X003220Y007128D01*
X002862Y006811D02*
X001338Y006811D01*
X001338Y006969D02*
X002592Y006969D01*
X002551Y007128D02*
X001338Y007128D01*
X001338Y007286D02*
X002597Y007286D01*
X002653Y006755D02*
X002653Y006755D01*
X002392Y006652D02*
X001338Y006652D01*
X001338Y006494D02*
X002089Y006494D01*
X002187Y006572D02*
X002187Y006572D01*
X001890Y006335D02*
X001338Y006335D01*
X001338Y006177D02*
X001739Y006177D01*
X001631Y006018D02*
X001338Y006018D01*
X001338Y005860D02*
X001523Y005860D01*
X001469Y005701D02*
X001338Y005701D01*
X001338Y005542D02*
X001420Y005542D01*
X001371Y005384D02*
X001338Y005384D01*
X001366Y005367D02*
X001366Y005367D01*
X001366Y005225D02*
X001338Y005225D01*
X001338Y005067D02*
X001366Y005067D01*
X001366Y004908D02*
X001338Y004908D01*
X001366Y004866D02*
X001366Y004866D01*
X001338Y004750D02*
X001402Y004750D01*
X001450Y004591D02*
X001338Y004591D01*
X001338Y004433D02*
X001499Y004433D01*
X001591Y004274D02*
X001338Y004274D01*
X001338Y004116D02*
X001699Y004116D01*
X001817Y003957D02*
X001338Y003957D01*
X001338Y003798D02*
X002016Y003798D01*
X002243Y003640D02*
X001338Y003640D01*
X001338Y003481D02*
X002647Y003481D01*
X002653Y003479D02*
X002653Y003479D01*
X002607Y003081D02*
X002259Y003081D01*
X002013Y002835D01*
X002013Y002487D01*
X002259Y002241D01*
X002607Y002241D01*
X002853Y002487D01*
X002853Y002835D01*
X002607Y003081D01*
X002683Y003006D02*
X003184Y003006D01*
X003259Y003081D02*
X003013Y002835D01*
X003013Y002487D01*
X003259Y002241D01*
X003607Y002241D01*
X003853Y002487D01*
X003853Y002835D01*
X003607Y003081D01*
X003259Y003081D01*
X003025Y002847D02*
X002841Y002847D01*
X002853Y002689D02*
X003013Y002689D01*
X003013Y002530D02*
X002853Y002530D01*
X002738Y002372D02*
X003129Y002372D01*
X003259Y002081D02*
X003013Y001835D01*
X003013Y001487D01*
X003259Y001241D01*
X003607Y001241D01*
X003853Y001487D01*
X003853Y001835D01*
X003607Y002081D01*
X003259Y002081D01*
X003233Y002054D02*
X002634Y002054D01*
X002607Y002081D02*
X002259Y002081D01*
X002013Y001835D01*
X002013Y001487D01*
X002259Y001241D01*
X002607Y001241D01*
X002853Y001487D01*
X002853Y001835D01*
X002607Y002081D01*
X002792Y001896D02*
X003074Y001896D01*
X003013Y001737D02*
X002853Y001737D01*
X002853Y001579D02*
X003013Y001579D01*
X003080Y001420D02*
X002786Y001420D01*
X002628Y001262D02*
X003239Y001262D01*
X003628Y001262D02*
X004239Y001262D01*
X004259Y001241D02*
X004607Y001241D01*
X004853Y001487D01*
X004853Y001835D01*
X004607Y002081D01*
X004259Y002081D01*
X004013Y001835D01*
X004013Y001487D01*
X004259Y001241D01*
X004080Y001420D02*
X003786Y001420D01*
X003853Y001579D02*
X004013Y001579D01*
X004013Y001737D02*
X003853Y001737D01*
X003792Y001896D02*
X004074Y001896D01*
X004233Y002054D02*
X003634Y002054D01*
X003738Y002372D02*
X004129Y002372D01*
X004013Y002487D02*
X004259Y002241D01*
X004607Y002241D01*
X004853Y002487D01*
X004853Y002835D01*
X004607Y003081D01*
X004259Y003081D01*
X004013Y002835D01*
X004013Y002487D01*
X004013Y002530D02*
X003853Y002530D01*
X003853Y002689D02*
X004013Y002689D01*
X004025Y002847D02*
X003841Y002847D01*
X003683Y003006D02*
X004184Y003006D01*
X004683Y003006D02*
X005184Y003006D01*
X005259Y003081D02*
X005013Y002835D01*
X005013Y002487D01*
X005259Y002241D01*
X005607Y002241D01*
X005853Y002487D01*
X005853Y002835D01*
X005607Y003081D01*
X005259Y003081D01*
X005025Y002847D02*
X004841Y002847D01*
X004853Y002689D02*
X005013Y002689D01*
X005013Y002530D02*
X004853Y002530D01*
X004738Y002372D02*
X005129Y002372D01*
X005259Y002081D02*
X005013Y001835D01*
X005013Y001487D01*
X005259Y001241D01*
X005607Y001241D01*
X005853Y001487D01*
X005853Y001835D01*
X005607Y002081D01*
X005259Y002081D01*
X005233Y002054D02*
X004634Y002054D01*
X004792Y001896D02*
X005074Y001896D01*
X005013Y001737D02*
X004853Y001737D01*
X004853Y001579D02*
X005013Y001579D01*
X005080Y001420D02*
X004786Y001420D01*
X004628Y001262D02*
X005239Y001262D01*
X005628Y001262D02*
X006239Y001262D01*
X006259Y001241D02*
X006607Y001241D01*
X006853Y001487D01*
X006853Y001835D01*
X006607Y002081D01*
X006259Y002081D01*
X006013Y001835D01*
X006013Y001487D01*
X006259Y001241D01*
X006080Y001420D02*
X005786Y001420D01*
X005853Y001579D02*
X006013Y001579D01*
X006013Y001737D02*
X005853Y001737D01*
X005792Y001896D02*
X006074Y001896D01*
X006233Y002054D02*
X005634Y002054D01*
X005738Y002372D02*
X006072Y002372D01*
X005973Y002471D02*
X006243Y002201D01*
X006423Y002201D01*
X006423Y002651D01*
X005973Y002651D01*
X005973Y002471D01*
X005973Y002530D02*
X005853Y002530D01*
X005853Y002689D02*
X005973Y002689D01*
X005973Y002671D02*
X006423Y002671D01*
X006423Y002651D01*
X006443Y002651D01*
X006443Y002201D01*
X006624Y002201D01*
X006743Y002321D01*
X006743Y002240D01*
X006743Y002082D01*
X007013Y001812D01*
X007013Y001487D01*
X007259Y001241D01*
X007607Y001241D01*
X007853Y001487D01*
X007853Y001835D01*
X007607Y002081D01*
X007282Y002081D01*
X007123Y002240D01*
X007123Y002377D01*
X007259Y002241D01*
X007607Y002241D01*
X007853Y002487D01*
X007853Y002835D01*
X007623Y003065D01*
X007623Y003115D01*
X007683Y003006D02*
X008184Y003006D01*
X008259Y003081D02*
X008013Y002835D01*
X008013Y002487D01*
X008259Y002241D01*
X008607Y002241D01*
X008853Y002487D01*
X008853Y002835D01*
X008607Y003081D01*
X008259Y003081D01*
X008025Y002847D02*
X007841Y002847D01*
X007853Y002689D02*
X008013Y002689D01*
X008013Y002530D02*
X007853Y002530D01*
X007738Y002372D02*
X008129Y002372D01*
X008259Y002081D02*
X008013Y001835D01*
X008013Y001487D01*
X008259Y001241D01*
X008607Y001241D01*
X008853Y001487D01*
X008853Y001835D01*
X008607Y002081D01*
X008259Y002081D01*
X008233Y002054D02*
X007634Y002054D01*
X007792Y001896D02*
X008074Y001896D01*
X008013Y001737D02*
X007853Y001737D01*
X007853Y001579D02*
X008013Y001579D01*
X008080Y001420D02*
X007786Y001420D01*
X007628Y001262D02*
X008239Y001262D01*
X008628Y001262D02*
X009239Y001262D01*
X009259Y001241D02*
X009607Y001241D01*
X009853Y001487D01*
X009853Y001835D01*
X009607Y002081D01*
X009259Y002081D01*
X009013Y001835D01*
X009013Y001487D01*
X009259Y001241D01*
X009080Y001420D02*
X008786Y001420D01*
X008853Y001579D02*
X009013Y001579D01*
X009013Y001737D02*
X008853Y001737D01*
X008792Y001896D02*
X009074Y001896D01*
X009233Y002054D02*
X008634Y002054D01*
X008738Y002372D02*
X009072Y002372D01*
X008973Y002471D02*
X008973Y002651D01*
X009423Y002651D01*
X009423Y002671D01*
X008973Y002671D01*
X008973Y002852D01*
X009243Y003121D01*
X009423Y003121D01*
X009423Y002671D01*
X009443Y002671D01*
X009443Y003121D01*
X009624Y003121D01*
X009893Y002852D01*
X009893Y002671D01*
X009444Y002671D01*
X009444Y002651D01*
X009893Y002651D01*
X009893Y002471D01*
X009624Y002201D01*
X009443Y002201D01*
X009443Y002651D01*
X009423Y002651D01*
X009423Y002201D01*
X009243Y002201D01*
X008973Y002471D01*
X008973Y002530D02*
X008853Y002530D01*
X008853Y002689D02*
X008973Y002689D01*
X008973Y002847D02*
X008841Y002847D01*
X008683Y003006D02*
X009127Y003006D01*
X009423Y003006D02*
X009443Y003006D01*
X009443Y002847D02*
X009423Y002847D01*
X009423Y002689D02*
X009443Y002689D01*
X009443Y002530D02*
X009423Y002530D01*
X009423Y002372D02*
X009443Y002372D01*
X009443Y002213D02*
X009423Y002213D01*
X009231Y002213D02*
X007150Y002213D01*
X007129Y002372D02*
X007123Y002372D01*
X006743Y002213D02*
X006636Y002213D01*
X006443Y002213D02*
X006423Y002213D01*
X006423Y002372D02*
X006443Y002372D01*
X006443Y002530D02*
X006423Y002530D01*
X006231Y002213D02*
X001338Y002213D01*
X001338Y002372D02*
X002129Y002372D01*
X002013Y002530D02*
X001338Y002530D01*
X001338Y002689D02*
X002013Y002689D01*
X002025Y002847D02*
X001338Y002847D01*
X001338Y003006D02*
X002184Y003006D01*
X001338Y003164D02*
X006286Y003164D01*
X006243Y003207D02*
X006330Y003121D01*
X006243Y003121D01*
X005973Y002852D01*
X005973Y002671D01*
X005973Y002847D02*
X005841Y002847D01*
X005683Y003006D02*
X006127Y003006D01*
X006243Y003207D02*
X006118Y003332D01*
X006118Y003490D01*
X006118Y003505D01*
X006070Y003525D01*
X005952Y003643D01*
X005888Y003798D01*
X005956Y003640D02*
X003791Y003640D01*
X003327Y003481D02*
X006118Y003481D01*
X006128Y003323D02*
X001338Y003323D01*
X001338Y002054D02*
X002233Y002054D01*
X002074Y001896D02*
X001338Y001896D01*
X001338Y001737D02*
X002013Y001737D01*
X002013Y001579D02*
X001338Y001579D01*
X001338Y001420D02*
X002080Y001420D01*
X002239Y001262D02*
X001338Y001262D01*
X006628Y001262D02*
X007239Y001262D01*
X007080Y001420D02*
X006786Y001420D01*
X006853Y001579D02*
X007013Y001579D01*
X007013Y001737D02*
X006853Y001737D01*
X006792Y001896D02*
X006930Y001896D01*
X006771Y002054D02*
X006634Y002054D01*
X007415Y003323D02*
X018495Y003323D01*
X018495Y003481D02*
X017106Y003481D01*
X016932Y003442D02*
X017420Y003553D01*
X017420Y003553D01*
X017854Y003803D01*
X018194Y004170D01*
X018194Y004171D01*
X018412Y004622D01*
X018486Y005117D01*
X018412Y005612D01*
X018194Y006063D01*
X018194Y006063D01*
X017854Y006430D01*
X017854Y006430D01*
X017420Y006681D01*
X016932Y006792D01*
X016432Y006755D01*
X015966Y006572D01*
X015575Y006260D01*
X015575Y006259D01*
X015293Y005846D01*
X015145Y005367D01*
X015145Y004866D01*
X015293Y004388D01*
X015575Y003974D01*
X015966Y003662D01*
X015966Y003662D01*
X016432Y003479D01*
X016432Y003479D01*
X016932Y003442D01*
X016932Y003442D01*
X016426Y003481D02*
X007441Y003481D01*
X007661Y003640D02*
X016022Y003640D01*
X015795Y003798D02*
X007728Y003798D01*
X007728Y003957D02*
X010618Y003957D01*
X010999Y003957D02*
X015596Y003957D01*
X015575Y003974D02*
X015575Y003974D01*
X015575Y003974D01*
X015478Y004116D02*
X011087Y004116D01*
X011064Y004274D02*
X015370Y004274D01*
X015293Y004388D02*
X015293Y004388D01*
X015279Y004433D02*
X010882Y004433D01*
X010735Y004433D02*
X007728Y004433D01*
X007701Y004591D02*
X015230Y004591D01*
X015181Y004750D02*
X007594Y004750D01*
X007807Y004908D02*
X015145Y004908D01*
X015145Y004866D02*
X015145Y004866D01*
X015145Y005067D02*
X007837Y005067D01*
X007764Y005225D02*
X015145Y005225D01*
X015145Y005367D02*
X015145Y005367D01*
X015150Y005384D02*
X012618Y005384D01*
X012614Y005382D02*
X012716Y005425D01*
X012795Y005503D01*
X012837Y005606D01*
X012837Y005666D01*
X013104Y005922D01*
X013104Y005881D01*
X013147Y005778D01*
X013225Y005700D01*
X013328Y005657D01*
X013439Y005657D01*
X013541Y005700D01*
X013588Y005746D01*
X013912Y005746D01*
X014023Y005857D01*
X014373Y006207D01*
X014373Y006365D01*
X014373Y007706D01*
X014420Y007753D01*
X014462Y007856D01*
X014462Y007967D01*
X014420Y008069D01*
X014341Y008148D01*
X014239Y008190D01*
X014128Y008190D01*
X014059Y008161D01*
X014087Y008231D01*
X014087Y008342D01*
X014045Y008444D01*
X013966Y008523D01*
X013864Y008565D01*
X013753Y008565D01*
X013650Y008523D01*
X013572Y008444D01*
X013529Y008342D01*
X013529Y008231D01*
X013572Y008128D01*
X013618Y008081D01*
X013618Y006480D01*
X013594Y006451D01*
X013185Y006451D01*
X013108Y006453D01*
X013107Y006451D01*
X013105Y006451D01*
X013050Y006397D01*
X012575Y005940D01*
X012503Y005940D01*
X012400Y005898D01*
X012322Y005819D01*
X012279Y005717D01*
X012279Y005606D01*
X012322Y005503D01*
X012400Y005425D01*
X012503Y005382D01*
X012614Y005382D01*
X012498Y005384D02*
X008047Y005384D01*
X008087Y005542D02*
X012305Y005542D01*
X012279Y005701D02*
X009118Y005701D01*
X009212Y005860D02*
X012362Y005860D01*
X012656Y006018D02*
X009191Y006018D01*
X008749Y005701D02*
X008242Y005701D01*
X008400Y005860D02*
X008591Y005860D01*
X009245Y006494D02*
X012247Y006494D01*
X012406Y006652D02*
X008943Y006652D01*
X009102Y006811D02*
X012564Y006811D01*
X012723Y006969D02*
X009260Y006969D01*
X009373Y007128D02*
X012881Y007128D01*
X012993Y007286D02*
X009373Y007286D01*
X009373Y007445D02*
X012993Y007445D01*
X012993Y007604D02*
X009373Y007604D01*
X009373Y007762D02*
X012993Y007762D01*
X012993Y007921D02*
X009373Y007921D01*
X009373Y008079D02*
X012993Y008079D01*
X012993Y008238D02*
X009373Y008238D01*
X009373Y008396D02*
X012993Y008396D01*
X012993Y008555D02*
X009373Y008555D01*
X009373Y008713D02*
X012993Y008713D01*
X012993Y008872D02*
X009373Y008872D01*
X009373Y009030D02*
X011057Y009030D01*
X011104Y009011D02*
X011263Y009011D01*
X011410Y009072D01*
X011522Y009185D01*
X011583Y009332D01*
X011583Y009491D01*
X011522Y009638D01*
X011410Y009750D01*
X011263Y009811D01*
X011104Y009811D01*
X011032Y009782D01*
X011089Y009918D01*
X011089Y010154D01*
X010998Y010373D01*
X010831Y010540D01*
X010612Y010631D01*
X010376Y010631D01*
X010157Y010540D01*
X009990Y010373D01*
X009899Y010154D01*
X009899Y009918D01*
X009990Y009699D01*
X010157Y009532D01*
X010376Y009441D01*
X010612Y009441D01*
X010794Y009516D01*
X010783Y009491D01*
X010783Y009332D01*
X010844Y009185D01*
X010957Y009072D01*
X011104Y009011D01*
X011309Y009030D02*
X012057Y009030D01*
X012104Y009011D02*
X012263Y009011D01*
X012410Y009072D01*
X012522Y009185D01*
X012583Y009332D01*
X012583Y009491D01*
X012522Y009638D01*
X012410Y009750D01*
X012263Y009811D01*
X012104Y009811D01*
X011957Y009750D01*
X011844Y009638D01*
X011783Y009491D01*
X011783Y009332D01*
X011844Y009185D01*
X011957Y009072D01*
X012104Y009011D01*
X012309Y009030D02*
X012993Y009030D01*
X012842Y009189D02*
X012524Y009189D01*
X012583Y009347D02*
X012783Y009347D01*
X012790Y009506D02*
X012577Y009506D01*
X012495Y009665D02*
X012871Y009665D01*
X012763Y010011D02*
X012604Y010011D01*
X012457Y010072D01*
X012344Y010185D01*
X012283Y010332D01*
X012283Y010491D01*
X012344Y010638D01*
X012457Y010750D01*
X012604Y010811D01*
X012763Y010811D01*
X012910Y010750D01*
X013022Y010638D01*
X013083Y010491D01*
X013083Y010332D01*
X013022Y010185D01*
X012910Y010072D01*
X012763Y010011D01*
X012978Y010140D02*
X013336Y010140D01*
X013348Y010124D02*
X013397Y010076D01*
X013453Y010035D01*
X013514Y010003D01*
X013580Y009982D01*
X013649Y009971D01*
X013683Y009971D01*
X013683Y010411D01*
X013243Y010411D01*
X013243Y010376D01*
X013254Y010308D01*
X013276Y010242D01*
X013307Y010181D01*
X013348Y010124D01*
X013257Y010299D02*
X013070Y010299D01*
X013083Y010457D02*
X013245Y010457D01*
X013243Y010446D02*
X013243Y010411D01*
X013683Y010411D01*
X013683Y010411D01*
X013683Y010411D01*
X013683Y009971D01*
X013718Y009971D01*
X013786Y009982D01*
X013852Y010003D01*
X013914Y010035D01*
X013970Y010076D01*
X014019Y010124D01*
X014060Y010181D01*
X014091Y010242D01*
X014112Y010308D01*
X014123Y010376D01*
X014123Y010411D01*
X013684Y010411D01*
X013684Y010411D01*
X014123Y010411D01*
X014123Y010446D01*
X014112Y010514D01*
X014091Y010580D01*
X014060Y010642D01*
X014019Y010698D01*
X013970Y010747D01*
X013914Y010787D01*
X013852Y010819D01*
X013786Y010840D01*
X013718Y010851D01*
X013683Y010851D01*
X013649Y010851D01*
X013580Y010840D01*
X013514Y010819D01*
X013453Y010787D01*
X013397Y010747D01*
X013348Y010698D01*
X013307Y010642D01*
X013276Y010580D01*
X013254Y010514D01*
X013243Y010446D01*
X013294Y010616D02*
X013031Y010616D01*
X012851Y010774D02*
X013435Y010774D01*
X013683Y010774D02*
X013683Y010774D01*
X013683Y010851D02*
X013683Y010412D01*
X013683Y010412D01*
X013683Y010851D01*
X013932Y010774D02*
X018495Y010774D01*
X018495Y010933D02*
X009373Y010933D01*
X009373Y011091D02*
X018495Y011091D01*
X018495Y011250D02*
X009373Y011250D01*
X009373Y011409D02*
X018495Y011409D01*
X018495Y011567D02*
X009373Y011567D01*
X009373Y011726D02*
X018495Y011726D01*
X018495Y011884D02*
X013946Y011884D01*
X013931Y011869D02*
X014054Y011992D01*
X014120Y012152D01*
X014120Y012920D01*
X014054Y013080D01*
X013931Y013203D01*
X013770Y013270D01*
X013596Y013270D01*
X013436Y013203D01*
X013313Y013080D01*
X013246Y012920D01*
X013246Y012152D01*
X013313Y011992D01*
X013436Y011869D01*
X013596Y011802D01*
X013770Y011802D01*
X013931Y011869D01*
X014075Y012043D02*
X018495Y012043D01*
X018495Y012201D02*
X014120Y012201D01*
X014120Y012360D02*
X018495Y012360D01*
X018495Y012518D02*
X014120Y012518D01*
X014120Y012677D02*
X018495Y012677D01*
X018495Y012835D02*
X014120Y012835D01*
X014089Y012994D02*
X018495Y012994D01*
X018495Y013153D02*
X013981Y013153D01*
X013385Y013153D02*
X013038Y013153D01*
X013047Y013144D02*
X012994Y013197D01*
X012933Y013241D01*
X012866Y013275D01*
X012795Y013298D01*
X012721Y013310D01*
X012702Y013310D01*
X012702Y012555D01*
X012665Y012555D01*
X012665Y013310D01*
X012646Y013310D01*
X012572Y013298D01*
X012500Y013275D01*
X012433Y013241D01*
X012373Y013197D01*
X012320Y013144D01*
X012275Y013083D01*
X012241Y013016D01*
X012218Y012945D01*
X012206Y012871D01*
X012206Y012555D01*
X012665Y012555D01*
X012665Y012518D01*
X011870Y012518D01*
X011870Y012360D02*
X012206Y012360D01*
X012206Y012518D02*
X012206Y012202D01*
X012218Y012128D01*
X012241Y012056D01*
X012275Y011989D01*
X012320Y011929D01*
X012373Y011876D01*
X012433Y011831D01*
X012500Y011797D01*
X012572Y011774D01*
X012646Y011762D01*
X012665Y011762D01*
X012665Y012517D01*
X012702Y012517D01*
X012702Y011762D01*
X012721Y011762D01*
X012795Y011774D01*
X012866Y011797D01*
X012933Y011831D01*
X012994Y011876D01*
X013047Y011929D01*
X013091Y011989D01*
X013125Y012056D01*
X013148Y012128D01*
X013160Y012202D01*
X013160Y012518D01*
X012702Y012518D01*
X013246Y012518D01*
X013160Y012555D02*
X013160Y012871D01*
X013148Y012945D01*
X013125Y013016D01*
X013091Y013083D01*
X013047Y013144D01*
X013132Y012994D02*
X013277Y012994D01*
X013246Y012835D02*
X013160Y012835D01*
X013160Y012677D02*
X013246Y012677D01*
X013160Y012555D02*
X012702Y012555D01*
X012702Y012518D01*
X012665Y012518D02*
X012206Y012518D01*
X012206Y012677D02*
X011870Y012677D01*
X011870Y012835D02*
X012206Y012835D01*
X012234Y012994D02*
X011839Y012994D01*
X011870Y012920D02*
X011804Y013080D01*
X011681Y013203D01*
X011520Y013270D01*
X011346Y013270D01*
X011186Y013203D01*
X011063Y013080D01*
X010996Y012920D01*
X010996Y012152D01*
X011063Y011992D01*
X011186Y011869D01*
X011346Y011802D01*
X011520Y011802D01*
X011681Y011869D01*
X011804Y011992D01*
X011870Y012152D01*
X011870Y012920D01*
X011731Y013153D02*
X012328Y013153D01*
X012665Y013153D02*
X012702Y013153D01*
X012702Y012994D02*
X012665Y012994D01*
X012665Y012835D02*
X012702Y012835D01*
X012702Y012677D02*
X012665Y012677D01*
X012665Y012360D02*
X012702Y012360D01*
X012702Y012201D02*
X012665Y012201D01*
X012665Y012043D02*
X012702Y012043D01*
X012702Y011884D02*
X012665Y011884D01*
X012364Y011884D02*
X011696Y011884D01*
X011825Y012043D02*
X012248Y012043D01*
X012206Y012201D02*
X011870Y012201D01*
X011171Y011884D02*
X010753Y011884D01*
X010744Y011876D02*
X010797Y011929D01*
X010841Y011989D01*
X010875Y012056D01*
X010898Y012128D01*
X010910Y012202D01*
X010910Y012518D01*
X010452Y012518D01*
X010996Y012518D01*
X010910Y012555D02*
X010910Y012871D01*
X010898Y012945D01*
X010875Y013016D01*
X010841Y013083D01*
X010797Y013144D01*
X010744Y013197D01*
X010683Y013241D01*
X010616Y013275D01*
X010545Y013298D01*
X010471Y013310D01*
X010452Y013310D01*
X010452Y012555D01*
X010415Y012555D01*
X010415Y013310D01*
X010396Y013310D01*
X010322Y013298D01*
X010250Y013275D01*
X010183Y013241D01*
X010123Y013197D01*
X010070Y013144D01*
X010025Y013083D01*
X009991Y013016D01*
X009968Y012945D01*
X009956Y012871D01*
X009956Y012555D01*
X010415Y012555D01*
X010415Y012518D01*
X009620Y012518D01*
X009620Y012360D02*
X009956Y012360D01*
X009956Y012518D02*
X009956Y012202D01*
X009968Y012128D01*
X009991Y012056D01*
X010025Y011989D01*
X010070Y011929D01*
X010123Y011876D01*
X010183Y011831D01*
X010250Y011797D01*
X010322Y011774D01*
X010396Y011762D01*
X010415Y011762D01*
X010415Y012517D01*
X010452Y012517D01*
X010452Y011762D01*
X010471Y011762D01*
X010545Y011774D01*
X010616Y011797D01*
X010683Y011831D01*
X010744Y011876D01*
X010868Y012043D02*
X011042Y012043D01*
X010996Y012201D02*
X010910Y012201D01*
X010910Y012360D02*
X010996Y012360D01*
X010910Y012555D02*
X010452Y012555D01*
X010452Y012518D01*
X010415Y012518D02*
X009956Y012518D01*
X009956Y012677D02*
X009620Y012677D01*
X009620Y012835D02*
X009956Y012835D01*
X009984Y012994D02*
X009589Y012994D01*
X009481Y013153D02*
X010078Y013153D01*
X010415Y013153D02*
X010452Y013153D01*
X010452Y012994D02*
X010415Y012994D01*
X010415Y012835D02*
X010452Y012835D01*
X010452Y012677D02*
X010415Y012677D01*
X010415Y012360D02*
X010452Y012360D01*
X010452Y012201D02*
X010415Y012201D01*
X010415Y012043D02*
X010452Y012043D01*
X010452Y011884D02*
X010415Y011884D01*
X010114Y011884D02*
X009446Y011884D01*
X009575Y012043D02*
X009998Y012043D01*
X009956Y012201D02*
X009620Y012201D01*
X010910Y012677D02*
X010996Y012677D01*
X010996Y012835D02*
X010910Y012835D01*
X010882Y012994D02*
X011027Y012994D01*
X011135Y013153D02*
X010788Y013153D01*
X009373Y013311D02*
X018495Y013311D01*
X018495Y013470D02*
X009373Y013470D01*
X009360Y013628D02*
X018495Y013628D01*
X018495Y013787D02*
X009201Y013787D01*
X007885Y013153D02*
X007231Y013153D01*
X007339Y012994D02*
X007777Y012994D01*
X007746Y012835D02*
X007370Y012835D01*
X007370Y012677D02*
X007746Y012677D01*
X007746Y012518D02*
X007370Y012518D01*
X007370Y012360D02*
X007746Y012360D01*
X007746Y012201D02*
X007370Y012201D01*
X007325Y012043D02*
X007792Y012043D01*
X007921Y011884D02*
X007196Y011884D01*
X006671Y011884D02*
X006196Y011884D01*
X006325Y012043D02*
X006542Y012043D01*
X006496Y012201D02*
X006370Y012201D01*
X006370Y012360D02*
X006496Y012360D01*
X006496Y012518D02*
X006370Y012518D01*
X006370Y012677D02*
X006496Y012677D01*
X006496Y012835D02*
X006370Y012835D01*
X006339Y012994D02*
X006527Y012994D01*
X006635Y013153D02*
X006231Y013153D01*
X005527Y012994D02*
X004160Y012994D01*
X004123Y012835D02*
X005496Y012835D01*
X005496Y012677D02*
X004123Y012677D01*
X004123Y012518D02*
X005496Y012518D01*
X005496Y012360D02*
X004123Y012360D01*
X004123Y012201D02*
X005496Y012201D01*
X005542Y012043D02*
X004181Y012043D01*
X004212Y011884D02*
X005671Y011884D01*
X004142Y011726D02*
X007993Y011726D01*
X007993Y011567D02*
X001338Y011567D01*
X001338Y011409D02*
X007993Y011409D01*
X007993Y011250D02*
X001338Y011250D01*
X001338Y011091D02*
X007993Y011091D01*
X008018Y010933D02*
X001338Y010933D01*
X001338Y010774D02*
X008176Y010774D01*
X008335Y010616D02*
X001338Y010616D01*
X001338Y010457D02*
X008368Y010457D01*
X008368Y010299D02*
X001338Y010299D01*
X001338Y010140D02*
X008368Y010140D01*
X008368Y009982D02*
X001338Y009982D01*
X001338Y009823D02*
X008368Y009823D01*
X008368Y009665D02*
X001338Y009665D01*
X001338Y009506D02*
X008368Y009506D01*
X008368Y009347D02*
X007641Y009347D01*
X007712Y009189D02*
X008368Y009189D01*
X008368Y009030D02*
X007681Y009030D01*
X007623Y008872D02*
X008368Y008872D01*
X008368Y008713D02*
X007623Y008713D01*
X007623Y008555D02*
X008368Y008555D01*
X008368Y008396D02*
X007623Y008396D01*
X007623Y008238D02*
X008368Y008238D01*
X008368Y008079D02*
X007623Y008079D01*
X007623Y007921D02*
X008368Y007921D01*
X008368Y007762D02*
X007623Y007762D01*
X007635Y007604D02*
X008368Y007604D01*
X008368Y007445D02*
X008043Y007445D01*
X008202Y007286D02*
X008368Y007286D01*
X008360Y007128D02*
X008368Y007128D01*
X007573Y007128D02*
X007509Y007128D01*
X007256Y007445D02*
X001338Y007445D01*
X001338Y007604D02*
X007243Y007604D01*
X007243Y007762D02*
X001338Y007762D01*
X001338Y007921D02*
X007243Y007921D01*
X007243Y008079D02*
X001338Y008079D01*
X001338Y008238D02*
X007243Y008238D01*
X007243Y008396D02*
X001338Y008396D01*
X001338Y008555D02*
X007243Y008555D01*
X007243Y008713D02*
X001338Y008713D01*
X001338Y008872D02*
X007243Y008872D01*
X007185Y009030D02*
X001338Y009030D01*
X001338Y009189D02*
X007154Y009189D01*
X007225Y009347D02*
X001338Y009347D01*
X001338Y011726D02*
X003724Y011726D01*
X003654Y011884D02*
X001338Y011884D01*
X001338Y012043D02*
X003686Y012043D01*
X003743Y012201D02*
X001338Y012201D01*
X001338Y012360D02*
X003743Y012360D01*
X003743Y012518D02*
X001338Y012518D01*
X001338Y012677D02*
X003743Y012677D01*
X003743Y012835D02*
X001338Y012835D01*
X001338Y012994D02*
X003743Y012994D01*
X003781Y013153D02*
X001338Y013153D01*
X001338Y013311D02*
X001889Y013311D01*
X001784Y013470D02*
X001338Y013470D01*
X001338Y013628D02*
X001794Y013628D01*
X001934Y013787D02*
X001338Y013787D01*
X001338Y013945D02*
X018495Y013945D01*
X018495Y014104D02*
X001338Y014104D01*
X001338Y014262D02*
X018495Y014262D01*
X018495Y010616D02*
X014073Y010616D01*
X014121Y010457D02*
X018495Y010457D01*
X018495Y010299D02*
X014109Y010299D01*
X014030Y010140D02*
X018495Y010140D01*
X018495Y009982D02*
X013784Y009982D01*
X013683Y009982D02*
X013683Y009982D01*
X013582Y009982D02*
X011089Y009982D01*
X011089Y010140D02*
X011389Y010140D01*
X011344Y010185D02*
X011457Y010072D01*
X011604Y010011D01*
X011763Y010011D01*
X011910Y010072D01*
X012022Y010185D01*
X012083Y010332D01*
X012083Y010491D01*
X012022Y010638D01*
X011910Y010750D01*
X011763Y010811D01*
X011604Y010811D01*
X011457Y010750D01*
X011344Y010638D01*
X011283Y010491D01*
X011283Y010332D01*
X011344Y010185D01*
X011297Y010299D02*
X011029Y010299D01*
X010914Y010457D02*
X011283Y010457D01*
X011335Y010616D02*
X010649Y010616D01*
X010339Y010616D02*
X009373Y010616D01*
X009373Y010457D02*
X010074Y010457D01*
X009959Y010299D02*
X009373Y010299D01*
X009373Y010140D02*
X009899Y010140D01*
X009899Y009982D02*
X009373Y009982D01*
X009373Y009823D02*
X009938Y009823D01*
X010024Y009665D02*
X009373Y009665D01*
X009373Y009506D02*
X010219Y009506D01*
X010769Y009506D02*
X010790Y009506D01*
X010783Y009347D02*
X009373Y009347D01*
X009373Y009189D02*
X010842Y009189D01*
X011524Y009189D02*
X011842Y009189D01*
X011783Y009347D02*
X011583Y009347D01*
X011577Y009506D02*
X011790Y009506D01*
X011871Y009665D02*
X011495Y009665D01*
X011050Y009823D02*
X018495Y009823D01*
X018495Y009665D02*
X013495Y009665D01*
X013577Y009506D02*
X018495Y009506D01*
X018495Y009347D02*
X013583Y009347D01*
X013524Y009189D02*
X018495Y009189D01*
X018495Y009030D02*
X013373Y009030D01*
X013373Y008872D02*
X018495Y008872D01*
X018495Y008713D02*
X013373Y008713D01*
X013373Y008555D02*
X013728Y008555D01*
X013889Y008555D02*
X018495Y008555D01*
X018495Y008396D02*
X014065Y008396D01*
X014087Y008238D02*
X018495Y008238D01*
X018495Y008079D02*
X014410Y008079D01*
X014462Y007921D02*
X018495Y007921D01*
X018495Y007762D02*
X014424Y007762D01*
X014373Y007604D02*
X018495Y007604D01*
X018495Y007445D02*
X014373Y007445D01*
X014373Y007286D02*
X018495Y007286D01*
X018495Y007128D02*
X014373Y007128D01*
X014373Y006969D02*
X018495Y006969D01*
X018495Y006811D02*
X014373Y006811D01*
X014373Y006652D02*
X016171Y006652D01*
X015966Y006572D02*
X015966Y006572D01*
X015868Y006494D02*
X014373Y006494D01*
X014373Y006335D02*
X015670Y006335D01*
X015575Y006260D02*
X015575Y006260D01*
X015518Y006177D02*
X014342Y006177D01*
X014184Y006018D02*
X015410Y006018D01*
X015302Y005860D02*
X014025Y005860D01*
X013543Y005701D02*
X015248Y005701D01*
X015293Y005846D02*
X015293Y005846D01*
X015199Y005542D02*
X012811Y005542D01*
X012874Y005701D02*
X013224Y005701D01*
X013113Y005860D02*
X013039Y005860D01*
X012821Y006177D02*
X012467Y006177D01*
X012626Y006335D02*
X012986Y006335D01*
X012785Y006494D02*
X013618Y006494D01*
X013618Y006652D02*
X012943Y006652D01*
X013102Y006811D02*
X013618Y006811D01*
X013618Y006969D02*
X013260Y006969D01*
X013373Y007128D02*
X013618Y007128D01*
X013618Y007286D02*
X013373Y007286D01*
X013373Y007445D02*
X013618Y007445D01*
X013618Y007604D02*
X013373Y007604D01*
X013373Y007762D02*
X013618Y007762D01*
X013618Y007921D02*
X013373Y007921D01*
X013373Y008079D02*
X013618Y008079D01*
X013529Y008238D02*
X013373Y008238D01*
X013373Y008396D02*
X013552Y008396D01*
X013683Y010140D02*
X013683Y010140D01*
X013683Y010299D02*
X013683Y010299D01*
X013683Y010457D02*
X013683Y010457D01*
X013683Y010616D02*
X013683Y010616D01*
X012515Y010774D02*
X011851Y010774D01*
X012031Y010616D02*
X012335Y010616D01*
X012283Y010457D02*
X012083Y010457D01*
X012070Y010299D02*
X012297Y010299D01*
X012389Y010140D02*
X011978Y010140D01*
X011515Y010774D02*
X009373Y010774D01*
X013003Y011884D02*
X013421Y011884D01*
X013292Y012043D02*
X013118Y012043D01*
X013160Y012201D02*
X013246Y012201D01*
X013246Y012360D02*
X013160Y012360D01*
X016932Y006792D02*
X016932Y006792D01*
X016432Y006755D02*
X016432Y006755D01*
X017420Y006681D02*
X017420Y006681D01*
X017469Y006652D02*
X018495Y006652D01*
X018495Y006494D02*
X017744Y006494D01*
X017942Y006335D02*
X018495Y006335D01*
X018495Y006177D02*
X018089Y006177D01*
X018216Y006018D02*
X018495Y006018D01*
X018495Y005860D02*
X018292Y005860D01*
X018369Y005701D02*
X018495Y005701D01*
X018495Y005542D02*
X018422Y005542D01*
X018446Y005384D02*
X018495Y005384D01*
X018495Y005225D02*
X018470Y005225D01*
X018486Y005117D02*
X018486Y005117D01*
X018479Y005067D02*
X018495Y005067D01*
X018495Y004908D02*
X018455Y004908D01*
X018431Y004750D02*
X018495Y004750D01*
X018412Y004622D02*
X018412Y004622D01*
X018397Y004591D02*
X018495Y004591D01*
X018495Y004433D02*
X018321Y004433D01*
X018244Y004274D02*
X018495Y004274D01*
X018495Y004116D02*
X018143Y004116D01*
X017996Y003957D02*
X018495Y003957D01*
X018495Y003798D02*
X017845Y003798D01*
X017854Y003803D02*
X017854Y003803D01*
X017571Y003640D02*
X018495Y003640D01*
X018495Y002847D02*
X017893Y002847D01*
X017893Y002689D02*
X018495Y002689D01*
X018495Y002530D02*
X017893Y002530D01*
X017794Y002372D02*
X018495Y002372D01*
X017231Y002213D02*
X012636Y002213D01*
X012624Y002201D02*
X012443Y002201D01*
X012443Y002651D01*
X012423Y002651D01*
X011973Y002651D01*
X011973Y002471D01*
X012243Y002201D01*
X012423Y002201D01*
X012423Y002651D01*
X012423Y002671D01*
X011973Y002671D01*
X011973Y002852D01*
X012243Y003121D01*
X012423Y003121D01*
X012423Y002671D01*
X012443Y002671D01*
X012443Y003121D01*
X012624Y003121D01*
X012893Y002852D01*
X012893Y002671D01*
X012444Y002671D01*
X012444Y002651D01*
X012893Y002651D01*
X012893Y002471D01*
X012624Y002201D01*
X012607Y002081D02*
X012259Y002081D01*
X012013Y001835D01*
X012013Y001487D01*
X012259Y001241D01*
X012607Y001241D01*
X012853Y001487D01*
X012853Y001835D01*
X012607Y002081D01*
X012634Y002054D02*
X013233Y002054D01*
X013259Y002081D02*
X013013Y001835D01*
X013013Y001487D01*
X013259Y001241D01*
X013607Y001241D01*
X013853Y001487D01*
X013853Y001835D01*
X013607Y002081D01*
X013259Y002081D01*
X013259Y002241D02*
X013607Y002241D01*
X013853Y002487D01*
X013853Y002835D01*
X013607Y003081D01*
X013259Y003081D01*
X013013Y002835D01*
X013013Y002487D01*
X013259Y002241D01*
X013129Y002372D02*
X012794Y002372D01*
X012893Y002530D02*
X013013Y002530D01*
X013013Y002689D02*
X012893Y002689D01*
X012893Y002847D02*
X013025Y002847D01*
X013184Y003006D02*
X012739Y003006D01*
X012443Y003006D02*
X012423Y003006D01*
X012423Y002847D02*
X012443Y002847D01*
X012443Y002689D02*
X012423Y002689D01*
X012423Y002530D02*
X012443Y002530D01*
X012443Y002372D02*
X012423Y002372D01*
X012423Y002213D02*
X012443Y002213D01*
X012231Y002213D02*
X010636Y002213D01*
X010624Y002201D02*
X010443Y002201D01*
X010443Y002651D01*
X010423Y002651D01*
X009973Y002651D01*
X009973Y002471D01*
X010243Y002201D01*
X010423Y002201D01*
X010423Y002651D01*
X010423Y002671D01*
X009973Y002671D01*
X009973Y002852D01*
X010243Y003121D01*
X010423Y003121D01*
X010423Y002671D01*
X010443Y002671D01*
X010443Y003121D01*
X010624Y003121D01*
X010893Y002852D01*
X010893Y002671D01*
X010444Y002671D01*
X010444Y002651D01*
X010893Y002651D01*
X010893Y002471D01*
X010624Y002201D01*
X010607Y002081D02*
X010259Y002081D01*
X010013Y001835D01*
X010013Y001487D01*
X010259Y001241D01*
X010607Y001241D01*
X010853Y001487D01*
X010853Y001835D01*
X010607Y002081D01*
X010634Y002054D02*
X011233Y002054D01*
X011259Y002081D02*
X011013Y001835D01*
X011013Y001487D01*
X011259Y001241D01*
X011607Y001241D01*
X011853Y001487D01*
X011853Y001835D01*
X011607Y002081D01*
X011259Y002081D01*
X011259Y002241D02*
X011607Y002241D01*
X011853Y002487D01*
X011853Y002835D01*
X011607Y003081D01*
X011259Y003081D01*
X011013Y002835D01*
X011013Y002487D01*
X011259Y002241D01*
X011129Y002372D02*
X010794Y002372D01*
X010893Y002530D02*
X011013Y002530D01*
X011013Y002689D02*
X010893Y002689D01*
X010893Y002847D02*
X011025Y002847D01*
X011184Y003006D02*
X010739Y003006D01*
X010443Y003006D02*
X010423Y003006D01*
X010423Y002847D02*
X010443Y002847D01*
X010443Y002689D02*
X010423Y002689D01*
X010423Y002530D02*
X010443Y002530D01*
X010443Y002372D02*
X010423Y002372D01*
X010423Y002213D02*
X010443Y002213D01*
X010231Y002213D02*
X009636Y002213D01*
X009794Y002372D02*
X010072Y002372D01*
X009973Y002530D02*
X009893Y002530D01*
X009893Y002689D02*
X009973Y002689D01*
X009973Y002847D02*
X009893Y002847D01*
X009739Y003006D02*
X010127Y003006D01*
X010233Y002054D02*
X009634Y002054D01*
X009792Y001896D02*
X010074Y001896D01*
X010013Y001737D02*
X009853Y001737D01*
X009853Y001579D02*
X010013Y001579D01*
X010080Y001420D02*
X009786Y001420D01*
X009628Y001262D02*
X010239Y001262D01*
X010628Y001262D02*
X011239Y001262D01*
X011080Y001420D02*
X010786Y001420D01*
X010853Y001579D02*
X011013Y001579D01*
X011013Y001737D02*
X010853Y001737D01*
X010792Y001896D02*
X011074Y001896D01*
X011634Y002054D02*
X012233Y002054D01*
X012074Y001896D02*
X011792Y001896D01*
X011853Y001737D02*
X012013Y001737D01*
X012013Y001579D02*
X011853Y001579D01*
X011786Y001420D02*
X012080Y001420D01*
X012239Y001262D02*
X011628Y001262D01*
X012628Y001262D02*
X013239Y001262D01*
X013080Y001420D02*
X012786Y001420D01*
X012853Y001579D02*
X013013Y001579D01*
X013013Y001737D02*
X012853Y001737D01*
X012792Y001896D02*
X013074Y001896D01*
X013634Y002054D02*
X014233Y002054D01*
X014259Y002081D02*
X014013Y001835D01*
X014013Y001487D01*
X014259Y001241D01*
X014607Y001241D01*
X014853Y001487D01*
X014853Y001835D01*
X014607Y002081D01*
X014259Y002081D01*
X014259Y002241D02*
X014607Y002241D01*
X014853Y002487D01*
X014853Y002835D01*
X014607Y003081D01*
X014259Y003081D01*
X014013Y002835D01*
X014013Y002487D01*
X014259Y002241D01*
X014129Y002372D02*
X013738Y002372D01*
X013853Y002530D02*
X014013Y002530D01*
X014013Y002689D02*
X013853Y002689D01*
X013841Y002847D02*
X014025Y002847D01*
X014184Y003006D02*
X013683Y003006D01*
X014683Y003006D02*
X015184Y003006D01*
X015259Y003081D02*
X015013Y002835D01*
X015013Y002487D01*
X015259Y002241D01*
X015607Y002241D01*
X015853Y002487D01*
X015853Y002835D01*
X015607Y003081D01*
X015259Y003081D01*
X015025Y002847D02*
X014841Y002847D01*
X014853Y002689D02*
X015013Y002689D01*
X015013Y002530D02*
X014853Y002530D01*
X014738Y002372D02*
X015129Y002372D01*
X015259Y002081D02*
X015013Y001835D01*
X015013Y001487D01*
X015259Y001241D01*
X015607Y001241D01*
X015853Y001487D01*
X015853Y001835D01*
X015607Y002081D01*
X015259Y002081D01*
X015233Y002054D02*
X014634Y002054D01*
X014792Y001896D02*
X015074Y001896D01*
X015013Y001737D02*
X014853Y001737D01*
X014853Y001579D02*
X015013Y001579D01*
X015080Y001420D02*
X014786Y001420D01*
X014628Y001262D02*
X015239Y001262D01*
X015628Y001262D02*
X016239Y001262D01*
X016259Y001241D02*
X016607Y001241D01*
X016853Y001487D01*
X016853Y001835D01*
X016607Y002081D01*
X016259Y002081D01*
X016013Y001835D01*
X016013Y001487D01*
X016259Y001241D01*
X016080Y001420D02*
X015786Y001420D01*
X015853Y001579D02*
X016013Y001579D01*
X016013Y001737D02*
X015853Y001737D01*
X015792Y001896D02*
X016074Y001896D01*
X016233Y002054D02*
X015634Y002054D01*
X015738Y002372D02*
X016129Y002372D01*
X016013Y002487D02*
X016259Y002241D01*
X016607Y002241D01*
X016853Y002487D01*
X016853Y002835D01*
X016607Y003081D01*
X016259Y003081D01*
X016013Y002835D01*
X016013Y002487D01*
X016013Y002530D02*
X015853Y002530D01*
X015853Y002689D02*
X016013Y002689D01*
X016025Y002847D02*
X015841Y002847D01*
X015683Y003006D02*
X016184Y003006D01*
X016683Y003006D02*
X017127Y003006D01*
X016973Y002847D02*
X016841Y002847D01*
X016853Y002689D02*
X016973Y002689D01*
X016973Y002530D02*
X016853Y002530D01*
X016738Y002372D02*
X017072Y002372D01*
X017233Y002054D02*
X016634Y002054D01*
X016792Y001896D02*
X017074Y001896D01*
X017013Y001737D02*
X016853Y001737D01*
X016853Y001579D02*
X017013Y001579D01*
X017080Y001420D02*
X016786Y001420D01*
X016628Y001262D02*
X017239Y001262D01*
X014239Y001262D02*
X013628Y001262D01*
X013786Y001420D02*
X014080Y001420D01*
X014013Y001579D02*
X013853Y001579D01*
X013853Y001737D02*
X014013Y001737D01*
X014074Y001896D02*
X013792Y001896D01*
X012072Y002372D02*
X011738Y002372D01*
X011853Y002530D02*
X011973Y002530D01*
X011973Y002689D02*
X011853Y002689D01*
X011841Y002847D02*
X011973Y002847D01*
X012127Y003006D02*
X011683Y003006D01*
X003940Y013311D02*
X002228Y013311D01*
X002182Y013787D02*
X005415Y013787D01*
D15*
X005058Y013786D03*
X003933Y011911D03*
X003058Y011036D03*
X002308Y009161D03*
X002830Y007125D03*
X003499Y007125D03*
X006933Y005536D03*
X007558Y005036D03*
X007808Y005536D03*
X008933Y005911D03*
X009058Y006286D03*
X009558Y005411D03*
X010183Y005411D03*
X010808Y004161D03*
X012558Y005661D03*
X013383Y005936D03*
X014183Y007911D03*
X013808Y008286D03*
X015183Y010786D03*
X018058Y009786D03*
X018308Y012911D03*
X009933Y007536D03*
X007672Y006574D03*
X007357Y006889D03*
X007433Y009161D03*
X002058Y013536D03*
D16*
X005858Y010746D03*
D17*
X007433Y009161D02*
X007433Y007536D01*
X007683Y007286D01*
X007933Y007286D01*
X008183Y007036D01*
X008183Y006286D01*
X007558Y005661D01*
X007558Y005036D01*
X007308Y005286D02*
X007308Y005786D01*
X007933Y006411D01*
X007933Y006786D01*
X007831Y006889D01*
X007357Y006889D01*
X007318Y006889D01*
X004090Y006889D01*
X003854Y007125D01*
X003499Y007125D01*
X003735Y006785D02*
X003145Y006785D01*
X002830Y007125D01*
X003735Y006785D02*
X003972Y006574D01*
X007672Y006574D01*
X008433Y006786D02*
X008433Y006161D01*
X007808Y005536D01*
X007308Y005286D02*
X006808Y004786D01*
X006808Y003661D01*
X007433Y003036D01*
X007433Y002661D01*
X006933Y002161D02*
X006933Y003161D01*
X006808Y003286D01*
X006433Y003286D01*
X006308Y003411D01*
X006308Y004161D01*
X007308Y004161D02*
X010808Y004161D01*
X012558Y005661D02*
X013183Y006261D01*
X013683Y006261D01*
X013808Y006411D01*
X013808Y008286D01*
X014183Y007911D02*
X014183Y006286D01*
X013833Y005936D01*
X013383Y005936D01*
X012308Y006286D02*
X013183Y007161D01*
X013183Y009411D01*
X012308Y006286D02*
X009058Y006286D01*
X008933Y005911D02*
X008808Y005911D01*
X008683Y006036D01*
X008683Y006661D01*
X009183Y007161D01*
X009183Y012536D01*
X009183Y013536D01*
X009058Y013661D01*
X005558Y013661D01*
X005433Y013536D01*
X002058Y013536D01*
X003933Y013036D02*
X003933Y011911D01*
X003933Y013036D02*
X004183Y013286D01*
X005558Y013286D01*
X005683Y013411D01*
X008058Y013411D01*
X008183Y013286D01*
X008183Y012536D01*
X008183Y011036D01*
X008558Y010661D01*
X008558Y006911D01*
X008433Y006786D01*
X006933Y002161D02*
X007433Y001661D01*
M02*
